<svg id="alert_icon" data-name="alert icon" xmlns="http://www.w3.org/2000/svg" width="69" height="69" viewBox="0 0 69 69">
  <defs>
    <style>
      .cls-1 {
        fill: none;
        stroke: #ec470d;
        stroke-linejoin: round;
        stroke-width: 4px;
        opacity: 0.2;
      }

      .cls-2 {
        fill: #ec470d;
        fill-rule: evenodd;
      }
    </style>
  </defs>
  <circle class="cls-1" cx="34.36" cy="34.188" r="30.016"/>
  <path class="cls-2" d="M440.736,225.036a1.876,1.876,0,0,0-1.882,1.868h0v24.562a1.882,1.882,0,0,0,3.764,0h0V226.9a1.876,1.876,0,0,0-1.882-1.868h0Zm-0.723,32.45a1.679,1.679,0,0,0-.6.416h0a1.752,1.752,0,0,0-.543,1.269v0.056a1.842,1.842,0,0,0,.542,1.306h0a2.137,2.137,0,0,0,.588.415l0.012,0.006a2.03,2.03,0,0,0,.69.117h0.066a1.823,1.823,0,0,0,1.294-.537h0a1.84,1.84,0,0,0,.54-1.305v-0.009h0v-0.049a1.748,1.748,0,0,0-.542-1.266h0a1.92,1.92,0,0,0-2.06-.412l0.012-.005Z" transform="translate(-406 -209)"/>
</svg>
