<svg xmlns="http://www.w3.org/2000/svg" width="110" height="110" viewBox="0 0 110 110">
  <defs>
    <style>
      .cls-1 {
        fill: #202020;
        fill-rule: evenodd;
      }
    </style>
  </defs>
  <g id="api_gateway_publish_icon">
    <path class="cls-1" d="M772.3,83.292h5.292V79.658H772.3v3.634Zm8.9,0h5.409V79.658H781.2v3.634ZM759.558,9.42L736.116,21.046V93.311l23.442,7.92V9.42Zm3.607,23V79.658h5.409v3.634h-5.409v20.464a1.826,1.826,0,0,1-.75,1.476,1.8,1.8,0,0,1-1.627.247L733.74,96.341a1.816,1.816,0,0,1-1.23-1.722V19.914a1.819,1.819,0,0,1,1.008-1.63L760.566,4.871a1.785,1.785,0,0,1,1.748.087,1.82,1.82,0,0,1,.851,1.543V28.782h5.409v3.634h-5.409Zm27.048,50.876h5.41V79.658h-5.41v3.634Zm0.117-50.875h5.293V28.782H790.33v3.634Zm-9.016,0h5.292V28.782h-5.292v3.634Zm-9.016,0h5.292V28.782H772.3v3.634Zm57.586-11.371L806.442,9.42v91.811l23.442-7.92V21.046Zm3.606,73.573a1.816,1.816,0,0,1-1.23,1.722l-27.048,9.138a1.8,1.8,0,0,1-1.626-.247,1.824,1.824,0,0,1-.751-1.476V83.292h-3.489V79.658h3.489V32.416h-3.489V28.782h3.489V6.5a1.82,1.82,0,0,1,.851-1.543,1.785,1.785,0,0,1,1.748-.087l27.048,13.413a1.819,1.819,0,0,1,1.008,1.63V94.619Zm-45.2-50.648-3.369-1.3-9.016,23.621,3.369,1.3ZM800.5,55.5a1.825,1.825,0,0,0,0-2.569l-7.213-7.268-2.55,2.569,5.938,5.983L790.741,60.2l2.55,2.569Zm-27.8,7.268L765.5,55.5a1.825,1.825,0,0,1,0-2.569l7.213-7.268,2.55,2.569-5.938,5.983,5.938,5.983Z" transform="translate(-728)"/>
  </g>
</svg>
