<svg xmlns="http://www.w3.org/2000/svg" width="46" height="30" viewBox="0 0 46 30">
  <defs>
    <style>
      .cls-1 {
        fill: #252f3e;
      }

      .cls-1, .cls-2 {
        fill-rule: evenodd;
      }

      .cls-2 {
        fill: #f90;
      }
    </style>
  </defs>
  <g id="aws_logo">
    <g id="aws_logo-2" data-name="aws_logo">
      <path id="aws_logo-3" data-name="aws logo" class="cls-1" d="M47.967,34.593a3.45,3.45,0,0,0,.126,1.016,6.107,6.107,0,0,0,.366.822,0.5,0.5,0,0,1,.08.262,0.452,0.452,0,0,1-.217.342l-0.72.479a0.548,0.548,0,0,1-.3.1,0.526,0.526,0,0,1-.343-0.16,3.528,3.528,0,0,1-.411-0.537c-0.114-.194-0.228-0.411-0.354-0.673a4.221,4.221,0,0,1-3.358,1.575A3.131,3.131,0,0,1,40.553,37a3.218,3.218,0,0,1,.194-4.542,4.159,4.159,0,0,1,2.8-.89,9.046,9.046,0,0,1,1.211.091c0.423,0.057.857,0.148,1.314,0.251V31.078a2.527,2.527,0,0,0-.537-1.826,2.631,2.631,0,0,0-1.862-.525,5.2,5.2,0,0,0-1.234.148,9.119,9.119,0,0,0-1.234.388,3.276,3.276,0,0,1-.4.148,0.7,0.7,0,0,1-.183.034c-0.16,0-.24-0.114-0.24-0.354V28.532a0.721,0.721,0,0,1,.08-0.4,0.855,0.855,0,0,1,.32-0.24,6.584,6.584,0,0,1,1.439-.514A6.93,6.93,0,0,1,44,27.163,4.177,4.177,0,0,1,47,28.087a3.775,3.775,0,0,1,.948,2.808v3.7h0.023Zm-4.638,1.735a3.7,3.7,0,0,0,1.177-.205,2.545,2.545,0,0,0,1.085-.73,1.812,1.812,0,0,0,.388-0.73,4.1,4.1,0,0,0,.114-0.993V33.189a9.533,9.533,0,0,0-1.051-.194,8.606,8.606,0,0,0-1.074-.069,2.635,2.635,0,0,0-1.7.457A1.631,1.631,0,0,0,43.329,36.328ZM52.5,37.56a0.639,0.639,0,0,1-.434-0.114A0.931,0.931,0,0,1,51.828,37l-2.684-8.822a1.993,1.993,0,0,1-.1-0.456,0.25,0.25,0,0,1,.274-0.285h1.119a0.634,0.634,0,0,1,.446.114,0.933,0.933,0,0,1,.228.445l1.919,7.555L54.81,28a0.8,0.8,0,0,1,.217-0.445,0.786,0.786,0,0,1,.457-0.114H56.4a0.688,0.688,0,0,1,.457.114,0.768,0.768,0,0,1,.217.445l1.8,7.647L60.853,28a0.98,0.98,0,0,1,.229-0.445,0.746,0.746,0,0,1,.445-0.114h1.062a0.254,0.254,0,0,1,.286.285,1.139,1.139,0,0,1-.023.183,1.628,1.628,0,0,1-.08.285l-2.753,8.822a0.875,0.875,0,0,1-.24.445,0.732,0.732,0,0,1-.434.114H58.362a0.688,0.688,0,0,1-.457-0.114A0.809,0.809,0,0,1,57.688,37L55.918,29.64l-1.759,7.35a0.89,0.89,0,0,1-.217.457,0.709,0.709,0,0,1-.457.114H52.5Zm14.679,0.308a7.564,7.564,0,0,1-1.759-.205,5.2,5.2,0,0,1-1.314-.456,0.823,0.823,0,0,1-.354-0.32,0.8,0.8,0,0,1-.069-0.32V35.985c0-.24.091-0.354,0.263-0.354a0.649,0.649,0,0,1,.206.034c0.069,0.023.171,0.069,0.285,0.114a6.218,6.218,0,0,0,1.257.4,6.868,6.868,0,0,0,1.359.137,3.085,3.085,0,0,0,1.668-.377,1.229,1.229,0,0,0,.594-1.084,1.111,1.111,0,0,0-.308-0.8,2.866,2.866,0,0,0-1.154-.593L66.2,32.949a3.484,3.484,0,0,1-1.828-1.164A2.718,2.718,0,0,1,63.8,30.13a2.537,2.537,0,0,1,.309-1.267,2.936,2.936,0,0,1,.822-0.936,3.626,3.626,0,0,1,1.188-.593,4.982,4.982,0,0,1,1.439-.194,5.731,5.731,0,0,1,.765.046c0.263,0.034.5,0.08,0.742,0.125s0.445,0.114.651,0.183a2.491,2.491,0,0,1,.48.206,0.987,0.987,0,0,1,.343.285,0.614,0.614,0,0,1,.1.377V28.9c0,0.24-.091.365-0.263,0.365a1.189,1.189,0,0,1-.434-0.137,5.23,5.23,0,0,0-2.193-.445,2.95,2.95,0,0,0-1.519.32,1.1,1.1,0,0,0-.537,1.016,1.077,1.077,0,0,0,.343.81,3.413,3.413,0,0,0,1.256.628l1.622,0.514a3.475,3.475,0,0,1,1.771,1.1,2.581,2.581,0,0,1,.525,1.6,2.932,2.932,0,0,1-.3,1.324,3.07,3.07,0,0,1-.834,1,3.683,3.683,0,0,1-1.268.639A5.44,5.44,0,0,1,67.181,37.868Z" transform="translate(-33 -22)"/>
      <path id="aws_logo_copy" data-name="aws logo copy" class="cls-2" d="M69.341,43.415a24.657,24.657,0,0,1-13.914,4.246A25.185,25.185,0,0,1,38.44,41.19c-0.354-.32-0.034-0.753.388-0.5a34.282,34.282,0,0,0,17,4.508,33.948,33.948,0,0,0,12.966-2.648C69.42,42.262,69.957,42.959,69.341,43.415Zm1.565-1.78c-0.48-.616-3.176-0.3-4.4-0.148-0.365.046-.423-0.274-0.091-0.514,2.148-1.507,5.678-1.073,6.089-.571s-0.114,4.04-2.125,5.729c-0.308.263-.605,0.126-0.468-0.217C70.369,44.785,71.385,42.24,70.906,41.635Z" transform="translate(-33 -22)"/>
    </g>
  </g>
</svg>
