<svg xmlns="http://www.w3.org/2000/svg" width="24" height="24" viewBox="0 0 24 24">
  <defs>
    <style>
      .cls-1 {
        fill: #505050;
        fill-rule: evenodd;
      }
    </style>
  </defs>
  <g id="copy_icon">
    <path id="copy_icon-2" data-name="copy icon" class="cls-1" d="M433.7,21.875H425.86a2.652,2.652,0,0,1-2.645-2.652V8.42a2.652,2.652,0,0,1,2.645-2.652h7.863a2.715,2.715,0,0,1,2.616,2.652v10.8A2.651,2.651,0,0,1,433.7,21.875ZM425.86,7.143a1.276,1.276,0,0,0-1.273,1.277v10.8A1.276,1.276,0,0,0,425.86,20.5H433.7a1.276,1.276,0,0,0,1.273-1.277V8.42a1.354,1.354,0,0,0-1.315-1.28Zm11.753,10.8a0.688,0.688,0,0,1,0-1.375,1.276,1.276,0,0,0,1.272-1.277V4.492a1.276,1.276,0,0,0-1.272-1.277h-7.835a1.276,1.276,0,0,0-1.273,1.277,0.686,0.686,0,1,1-1.372,0,2.651,2.651,0,0,1,2.645-2.652h7.835a2.651,2.651,0,0,1,2.644,2.652v10.8A2.651,2.651,0,0,1,437.613,17.947Z" transform="translate(-420)"/>
  </g>
</svg>
