<svg width="44" height="46" viewBox="0 0 44 46" fill="none" xmlns="http://www.w3.org/2000/svg">
<path d="M0 22.4486C0 17.4141 1.09673e-07 14.8968 1.14224 12.81C2.28448 10.7233 4.37129 9.42812 8.54486 6.83789L12.9449 4.10711C17.3567 1.36904 19.5626 0 22 0C24.4374 0 26.6433 1.36904 31.0552 4.10711L35.4552 6.83786C39.6288 9.42812 41.7155 10.7233 42.8578 12.81C44 14.8968 44 17.4141 44 22.4486V27.795C44 36.3768 44 40.6679 41.4225 43.3338C38.8452 46 34.6966 46 26.4 46H17.6C9.30327 46 5.15493 46 2.57745 43.3338C2.19345e-07 40.6679 0 36.3768 0 27.795V22.4486Z" fill="#1C274C"/>
<path d="M34.5955 25.8256L28.9247 20.9773C28.4398 20.5628 27.7106 20.6199 27.2962 21.1045C26.8817 21.5894 26.9386 22.3185 27.4234 22.733L32.0675 26.7036L27.4235 30.674C26.9386 31.0886 26.8817 31.8176 27.2963 32.3025C27.5248 32.5697 27.8488 32.707 28.1747 32.7069C28.4401 32.7069 28.707 32.6158 28.9248 32.4298L34.5956 27.5815C34.8523 27.362 35 27.0412 35 26.7035C34.9999 26.3657 34.8522 26.0451 34.5955 25.8256Z" fill="white"/>
<path d="M16.7037 21.1047C16.2891 20.6199 15.5601 20.5627 15.0752 20.9775L9.40433 25.8258C9.1477 26.0453 9 26.3661 9 26.7038C9 27.0415 9.1477 27.3623 9.40433 27.5818L15.0752 32.4301C15.2929 32.6161 15.5597 32.7072 15.8253 32.7072C16.1512 32.7072 16.4753 32.57 16.7037 32.3028C17.1182 31.818 17.0612 31.0889 16.5764 30.6744L11.9323 26.7037L16.5763 22.7332C17.0612 22.3187 17.1182 21.5896 16.7037 21.1047Z" fill="white"/>
<path d="M24.4891 19.0571C23.8824 18.8595 23.2307 19.1913 23.0333 19.798L18.7702 32.8945C18.5728 33.501 18.9043 34.1529 19.511 34.3503C19.6298 34.3889 19.7502 34.4074 19.8687 34.4074C20.3553 34.4074 20.808 34.0973 20.9668 33.6095L25.23 20.513C25.4272 19.9063 25.0956 19.2544 24.4891 19.0571Z" fill="#5991FF"/>
</svg>
