<svg xmlns="http://www.w3.org/2000/svg" width="30" height="30" viewBox="0 0 30 30">
  <defs>
    <style>
      .cls-1 {
        fill: #175cff;
        fill-rule: evenodd;
        opacity: 0.9;
      }
    </style>
  </defs>
  <g id="eye_icon">
    <path id="eye_icon-2" data-name="eye_icon" class="cls-1" d="M480.126,35.8l-2.078-2.03a11.149,11.149,0,0,0-15.461,0l-2.078,2.03a0.844,0.844,0,0,0,0,1.2l2.078,2.03a11.149,11.149,0,0,0,15.461,0L480.126,37a0.838,0.838,0,0,0,0-1.2h0Zm-9.809,3.469a2.869,2.869,0,1,1,2.867-2.869A2.871,2.871,0,0,1,470.317,39.271ZM462.3,36.4l1.466-1.43a9.2,9.2,0,0,1,3.931-2.277,4.539,4.539,0,0,0,0,7.406,9.235,9.235,0,0,1-3.931-2.273L462.3,36.4h0Zm14.581,1.43a9.241,9.241,0,0,1-3.931,2.273,4.539,4.539,0,0,0,0-7.406,9.2,9.2,0,0,1,3.931,2.277l1.462,1.43-1.462,1.426h0Z" transform="translate(-455 -22)"/>
  </g>
</svg>
