<svg xmlns="http://www.w3.org/2000/svg" width="36" height="36" viewBox="0 0 36 36">
  <defs>
    <style>
      .cls-1 {
        fill: #151050;
        fill-rule: evenodd;
      }
    </style>
  </defs>
  <g id="icon_import">
    <path class="cls-1" d="M583.679,57.016H562.334A5.34,5.34,0,0,1,557,51.68V30.336A5.341,5.341,0,0,1,562.334,25h6.538a1.067,1.067,0,0,1,0,2.134h-6.538a3.206,3.206,0,0,0-3.2,3.2V51.68a3.206,3.206,0,0,0,3.2,3.2h21.345a3.2,3.2,0,0,0,3.2-3.2V32.336a1.068,1.068,0,0,1,2.135,0V51.68A5.341,5.341,0,0,1,583.679,57.016Zm-9.586-12.2,4.562-4.562a1.067,1.067,0,1,1,1.509,1.509l-6.4,6.4a1.066,1.066,0,0,1-1.509,0l-6.4-6.4a1.067,1.067,0,1,1,1.509-1.509L571.9,44.8s0.037,0.2.037-.386V32.47A7.48,7.48,0,0,1,579.41,25h8.537a1.067,1.067,0,1,1,0,2.134H579.41a5.341,5.341,0,0,0-5.336,5.336V44.411C574.074,45,574.093,44.815,574.093,44.815Z" transform="translate(-555 -23)"/>
  </g>
</svg>
