<svg xmlns="http://www.w3.org/2000/svg" width="36" height="36" viewBox="0 0 36 36">
  <defs>
    <style>
      .cls-1 {
        fill: #151050;
        fill-rule: evenodd;
      }
    </style>
  </defs>
  <g id="icon_create_environment">
    <path id="_." data-name="." class="cls-1" d="M758.442,32.353a1.077,1.077,0,0,0-.283-0.432A16.512,16.512,0,1,0,758.442,32.353Zm-3.326-.728H754.7a4.169,4.169,0,0,0-4.164,4.165,1.966,1.966,0,0,1-1.094,1.769l-0.134.067a2.231,2.231,0,0,1-1.982,0l-0.136-.069a1.967,1.967,0,0,1-1.093-1.769,4.169,4.169,0,0,0-4.165-4.165h-0.242a2.222,2.222,0,0,1-2.219-2.22V28.352A13.739,13.739,0,0,1,755.116,31.625ZM737.3,29.541a4.4,4.4,0,0,0,4.391,4.271h0.242a1.981,1.981,0,0,1,1.979,1.978,4.139,4.139,0,0,0,2.3,3.723l0.136,0.068a4.424,4.424,0,0,0,3.941,0l0.134-.067a4.141,4.141,0,0,0,2.3-3.724,1.981,1.981,0,0,1,1.979-1.978h2.078a13.664,13.664,0,0,1,1.477,11.065h-3.313a4.41,4.41,0,0,0-4.406,4.406v4.14a1.029,1.029,0,0,0,.042.207,13.707,13.707,0,0,1-4.481,1.129V49.282a4.41,4.41,0,0,0-4.407-4.406,2.222,2.222,0,0,1-2.219-2.22,4.41,4.41,0,0,0-4.4-4.406h-3.6A13.848,13.848,0,0,1,737.3,29.541ZM731.185,41c0-.19.021-0.375,0.029-0.564h3.848a2.222,2.222,0,0,1,2.219,2.22,4.41,4.41,0,0,0,4.405,4.405,2.224,2.224,0,0,1,2.221,2.221v5.477A13.825,13.825,0,0,1,731.185,41Zm21.532,11.452v-3.17a2.224,2.224,0,0,1,2.221-2.221h2.456A13.89,13.89,0,0,1,752.717,52.452Z" transform="translate(-727 -23)"/>
  </g>
</svg>
