<svg xmlns="http://www.w3.org/2000/svg" width="20" height="20" viewBox="0 0 20 20">
  <defs>
    <style>
      .cls-1 {
        fill: #435b7d;
        fill-rule: evenodd;
      }
    </style>
  </defs>
  <g id="icon_email">
    <path class="cls-1" d="M16,17H4a3,3,0,0,1-3-3V6A3,3,0,0,1,4,3H16a3,3,0,0,1,3,3v8A3,3,0,0,1,16,17ZM4,5A1,1,0,0,0,3,6v8a1,1,0,0,0,1,1H16a1,1,0,0,0,1-1V6a1,1,0,0,0-1-1H4Zm6,6a0.994,0.994,0,0,1-.371-0.071l-5-2a1,1,0,1,1,.742-1.857L10,8.923l4.629-1.851a1,1,0,1,1,.742,1.857l-5,2A0.994,0.994,0,0,1,10,11Z"/>
  </g>
</svg>
