<svg xmlns="http://www.w3.org/2000/svg" width="28" height="28" viewBox="0 0 28 28">
  <defs>
    <style>
      .cls-1 {
        fill: #435b7d;
        fill-rule: evenodd;
      }
    </style>
  </defs>
  <g id="icon_organization">
    <path class="cls-1" d="M501.019,27H486V8.834h1.862V4.98h4.572V1h2.147V4.98h4.572V8.834h1.863V27Zm-12.871-2.165h10.725V11H488.148V24.835Zm1.863-16h7V7.146h-7V8.834Zm0.882,5.221h1.155v2.621h-1.155V14.055Zm1.651,3.121H490.4V13.555h2.147v3.622Zm-1.156-1h0.164V14.555h-0.164v1.622Zm3.5-2.121h1.155v2.621h-1.155V14.055Zm1.651,3.121h-2.147V13.555h2.147v3.622Zm-1.155-1h0.163V14.555H495.38v1.622Zm-4.487,4.356h1.155v2.621h-1.155V20.533Zm1.651,3.121H490.4V20.033h2.147v3.621Zm-1.156-1h0.164V21.033h-0.164v1.621Zm3.5-2.121h1.155v2.621h-1.155V20.533Zm1.651,3.121h-2.147V20.033h2.147v3.621Zm-1.155-1h0.163V21.033H495.38v1.621Z" transform="translate(-480)"/>
  </g>
</svg>
