<svg xmlns="http://www.w3.org/2000/svg" width="36" height="36" viewBox="0 0 36 36">
  <defs>
    <style>
      .cls-1 {
        fill: #151050;
        fill-rule: evenodd;
      }
    </style>
  </defs>
  <g id="icon_go_to_workspace">
    <path id="Shape_894_copy" data-name="Shape 894 copy" class="cls-1" d="M659.5,56.713h-20A5.538,5.538,0,0,1,634,51.15V37.929a5.585,5.585,0,0,1,2.772-4.83l10-6.359a5.467,5.467,0,0,1,5.458,0l10,6.359A5.584,5.584,0,0,1,665,37.929V51.15A5.537,5.537,0,0,1,659.5,56.713Zm-10-28.479a3.278,3.278,0,0,0-1.637.438h0l-10,6.359a3.357,3.357,0,0,0-1.663,2.9V51.15a3.322,3.322,0,0,0,3.3,3.338h20a3.322,3.322,0,0,0,3.3-3.338V37.929a3.355,3.355,0,0,0-1.663-2.9l-10-6.359A3.28,3.28,0,0,0,649.5,28.234Zm-2.182-.528h0Z" transform="translate(-631 -23)"/>
  </g>
</svg>
