<svg xmlns="http://www.w3.org/2000/svg" width="36" height="36" viewBox="0 0 36 36">
  <defs>
    <style>
      .cls-1 {
        fill: #151050;
        fill-rule: evenodd;
      }
    </style>
  </defs>
  <g id="icon_create_new_api">
    <path class="cls-1" d="M497.476,57.068H475.588a5.6,5.6,0,0,1-5.59-5.59V29.59a5.6,5.6,0,0,1,5.59-5.59h21.888a5.6,5.6,0,0,1,5.59,5.59V51.478A5.6,5.6,0,0,1,497.476,57.068ZM475.588,26.236a3.358,3.358,0,0,0-3.354,3.354V51.478a3.358,3.358,0,0,0,3.354,3.354h21.888a3.357,3.357,0,0,0,3.354-3.354V29.59a3.357,3.357,0,0,0-3.354-3.354H475.588Zm9.787,15.416h-5.55a1.118,1.118,0,0,1,0-2.236h5.6l-0.007-5.59a1.118,1.118,0,0,1,2.236,0v5.6l5.589-.006a1.118,1.118,0,1,1,0,2.236h-5.6l0.01,5.714a1.118,1.118,0,1,1-2.236,0V41.641Z" transform="translate(-469 -23)"/>
  </g>
</svg>
