<svg xmlns="http://www.w3.org/2000/svg" width="26" height="26" viewBox="0 0 26 26">
  <defs>
    <style>
      .cls-1 {
        fill: #101247;
        fill-rule: evenodd;
        opacity: 0.6;
      }
    </style>
  </defs>
  <g id="icon_projects">
    <path class="cls-1" d="M348.253,37.222h4.338a0.723,0.723,0,0,0,0-1.446h-4.338A0.723,0.723,0,0,0,348.253,37.222Zm4.338,0.306h-4.338a1.029,1.029,0,1,1,0-2.057h4.338A1.029,1.029,0,0,1,352.591,37.528Zm-4.338-1.445a0.417,0.417,0,0,0,0,.833h4.338a0.417,0.417,0,0,0,0-.833h-4.338Zm7.229-8.98h-10.12a3.62,3.62,0,0,0-3.614,3.614V31.44a2.167,2.167,0,0,0,.724,1.615v7.782a3.617,3.617,0,0,0,3.613,3.614h8.674a3.619,3.619,0,0,0,3.614-3.614V33.055a2.169,2.169,0,0,0,.723-1.615V30.717A3.62,3.62,0,0,0,355.482,27.1Zm-12.289,3.614a2.169,2.169,0,0,1,2.169-2.168h10.12a2.168,2.168,0,0,1,2.168,2.168V31.44a0.723,0.723,0,0,1-.722.723H343.916a0.724,0.724,0,0,1-.723-0.723V30.717Zm13.735,10.12A2.169,2.169,0,0,1,354.759,43h-8.674a2.169,2.169,0,0,1-2.169-2.168V33.608h13.012v7.228Zm-2.168,3.92h-8.675a3.931,3.931,0,0,1-3.92-3.92V33.186a2.476,2.476,0,0,1-.722-1.746V30.717a3.929,3.929,0,0,1,3.919-3.92h10.12a3.93,3.93,0,0,1,3.92,3.919V31.44a2.474,2.474,0,0,1-.724,1.746v7.65A3.929,3.929,0,0,1,354.76,44.756Zm-9.4-17.347a3.316,3.316,0,0,0-3.307,3.309V31.44a1.861,1.861,0,0,0,.62,1.386l0.1,0.091v7.919a3.319,3.319,0,0,0,3.308,3.308h8.674a3.319,3.319,0,0,0,3.308-3.309V32.917l0.1-.091a1.866,1.866,0,0,0,.621-1.386V30.717a3.318,3.318,0,0,0-3.309-3.308H345.362Zm9.4,15.9h-8.674a2.477,2.477,0,0,1-2.474-2.474V33.3h13.622v7.534A2.477,2.477,0,0,1,354.759,43.31Zm-10.536-9.4v6.922a1.864,1.864,0,0,0,1.862,1.862h8.674a1.864,1.864,0,0,0,1.862-1.862V33.914h-12.4Zm12.7-1.446H343.917a1.03,1.03,0,0,1-1.029-1.028V30.717a2.477,2.477,0,0,1,2.474-2.474h10.119a2.478,2.478,0,0,1,2.475,2.474V31.44A1.03,1.03,0,0,1,356.928,32.468Zm-11.566-3.614a1.865,1.865,0,0,0-1.862,1.862V31.44a0.418,0.418,0,0,0,.417.416h13.011a0.416,0.416,0,0,0,.415-0.416V30.717a1.864,1.864,0,0,0-1.862-1.862H345.362Z" transform="translate(-337 -23)"/>
  </g>
</svg>
