<svg xmlns="http://www.w3.org/2000/svg" width="26" height="26" viewBox="0 0 26 26">
  <defs>
    <style>
      .cls-1 {
        fill: #fff;
        fill-rule: evenodd;
        opacity: 0.6;
      }
    </style>
  </defs>
  <g id="icon_notification">
    <path id="notification_icon" data-name="notification icon" class="cls-1" d="M29.97,48a4.787,4.787,0,0,1-4.082-2.385,1.225,1.225,0,1,1,2.038-1.36,2.261,2.261,0,0,0,4.086,0,1.225,1.225,0,1,1,2.038,1.36A4.788,4.788,0,0,1,29.97,48ZM36.2,43.339H23.742a3.25,3.25,0,0,1-2.785-4.921,11.692,11.692,0,0,0,1.662-6.01v-1.33a6.135,6.135,0,0,1,6.125-6.13h2.45a6.135,6.135,0,0,1,6.125,6.13v1.33a11.692,11.692,0,0,0,1.662,6.009,3.255,3.255,0,0,1-1.115,4.459A3.222,3.222,0,0,1,36.2,43.339ZM28.745,27.4a3.68,3.68,0,0,0-3.675,3.678v1.33a14.142,14.142,0,0,1-2.012,7.271,0.8,0.8,0,0,0,.683,1.208H36.2a0.778,0.778,0,0,0,.407-0.113,0.79,0.79,0,0,0,.366-0.491,0.8,0.8,0,0,0-.09-0.606,14.142,14.142,0,0,1-2.012-7.27v-1.33A3.68,3.68,0,0,0,31.195,27.4h-2.45Z" transform="translate(-17 -23)"/>
  </g>
</svg>
