<svg xmlns="http://www.w3.org/2000/svg" width="20" height="20" viewBox="0 0 20 20">
  <defs>
    <style>
      .cls-1 {
        fill: #435b7d;
        fill-rule: evenodd;
      }
    </style>
  </defs>
  <g id="icon_lock">
    <path class="cls-1" d="M133.981,20h-7.995a3,3,0,0,1-3-3V11a3,3,0,0,1,2-2.828l0-1.164c0-2.335.437-3.867,1.388-4.821a6.085,6.085,0,0,1,7.222,0c0.95,0.955,1.389,2.486,1.383,4.821V8.165a3.012,3.012,0,0,1,2.012,2.612l0.006,0.2-0.015,6.034A3,3,0,0,1,133.981,20Zm-8-10a1,1,0,0,0-1,1v6a1,1,0,0,0,1,1h7.995a1,1,0,0,0,1-1L135,11l0-.121A1,1,0,0,0,134,10h-8.013Zm1-2h6V7.005c0-1.747-.256-2.86-0.8-3.406a4.323,4.323,0,0,0-4.394,0c-0.544.546-.807,1.659-0.8,3.4Zm3,4.5a1.5,1.5,0,1,1-1.5,1.5A1.5,1.5,0,0,1,129.981,12.5Z" transform="translate(-120)"/>
  </g>
</svg>
