<svg width="505" height="57" viewBox="0 0 505 57" fill="none" xmlns="http://www.w3.org/2000/svg">
<path d="M42.2195 54.3134C42.2195 55.1027 41.8034 55.4974 40.9713 55.4974H36.6392C36.2965 55.4974 36.0273 55.374 35.8315 55.1767C35.6357 54.9547 35.4889 54.6834 35.391 54.3874L30.6183 37.3682H11.6012L6.90197 54.3874C6.80407 54.6834 6.63274 54.9301 6.38799 55.1767C6.14324 55.3987 5.87402 55.4974 5.58032 55.4974H1.24823C0.416076 55.4974 0 55.1027 0 54.3134C0 54.0668 0 53.8941 0.0734252 53.7954L13.6571 5.62373C13.9508 4.48911 14.3669 3.57649 14.9298 2.86119C15.4927 2.14589 16.1046 1.57858 16.8144 1.15927C17.4997 0.739958 18.2095 0.443972 18.9682 0.271313C19.7269 0.0986547 20.4367 0.0246582 21.122 0.0246582C21.8073 0.0246582 22.5171 0.0986547 23.2513 0.246648C23.9856 0.394641 24.6953 0.665961 25.3807 1.08527C26.066 1.50459 26.6778 2.07189 27.2652 2.78719C27.8282 3.50249 28.2442 4.43978 28.5379 5.54973L42.1216 53.7954C42.1216 53.7954 42.195 54.0668 42.195 54.3134H42.2195ZM22.5415 7.17765C22.2968 6.28969 21.8318 5.84572 21.1465 5.84572C20.4122 5.84572 19.9227 6.28969 19.678 7.17765L12.9963 31.5225H29.2232L22.5415 7.17765Z" fill="#303030"/>
<path d="M81.3552 54.5601C81.0615 54.7821 80.7188 54.9547 80.3272 55.0287C79.544 55.1767 78.7608 55.3247 77.9776 55.448C77.1944 55.5714 76.3378 55.67 75.4077 55.744C74.4777 55.818 73.4252 55.8674 72.2504 55.9414C71.0756 55.9907 69.705 56.0154 68.1386 56.0154C65.8869 56.0154 63.6107 55.67 61.3101 54.9794C59.0094 54.2888 56.929 53.0555 55.0689 51.3289C53.2088 49.5777 51.6913 47.2344 50.5165 44.2992C49.3417 41.364 48.7543 37.6642 48.7543 33.1751V22.8896C48.7543 18.3511 49.3417 14.602 50.5165 11.6668C51.6913 8.73159 53.2088 6.41303 55.0689 4.66178C56.929 2.93519 59.0094 1.72659 61.3101 1.03595C63.6107 0.345317 65.8869 0 68.1386 0C70.3903 0 72.7155 0.147993 74.8448 0.419314C76.9741 0.690634 78.8587 0.937289 80.4496 1.18394C81.2328 1.28261 81.6244 1.60326 81.6244 2.1459V5.91972C81.6244 6.16638 81.5754 6.3637 81.4775 6.51169C81.3796 6.65969 81.1349 6.73368 80.7433 6.73368H80.523C79.8867 6.68435 79.079 6.63502 78.1 6.56102C77.121 6.48703 76.093 6.41303 74.9916 6.33903C73.8903 6.26504 72.7644 6.21571 71.5896 6.14171C70.4148 6.06771 69.2889 6.06771 68.212 6.06771C66.4009 6.06771 64.7366 6.3637 63.1702 6.93101C61.6282 7.49831 60.2821 8.4356 59.1318 9.74287C57.9814 11.0501 57.0759 12.7767 56.415 14.9226C55.7542 17.0685 55.4116 19.7324 55.4116 22.8896V33.1751C55.4116 36.283 55.7542 38.8975 56.415 41.0434C57.0759 43.1893 57.9814 44.9159 59.1318 46.2231C60.2821 47.5304 61.6282 48.4677 63.1702 49.0597C64.7121 49.6517 66.3764 49.9476 68.212 49.9476C69.24 49.9476 70.3169 49.9476 71.4672 49.8736C72.6176 49.8243 73.7434 49.775 74.8448 49.7257C75.9462 49.6763 76.9741 49.627 77.9286 49.5283C78.8832 49.4543 79.6664 49.405 80.3272 49.331H80.6209C81.4041 49.331 81.7957 49.7257 81.7957 50.5149V53.5488C81.7957 53.9928 81.6489 54.3381 81.3552 54.5601Z" fill="#303030"/>
<path d="M121.372 54.5601C121.078 54.7821 120.735 54.9547 120.344 55.0287C119.561 55.1767 118.777 55.3247 117.994 55.448C117.211 55.5714 116.354 55.67 115.424 55.744C114.494 55.818 113.442 55.8674 112.267 55.9414C111.092 55.9907 109.722 56.0154 108.155 56.0154C105.904 56.0154 103.627 55.67 101.327 54.9794C99.0261 54.2888 96.9457 53.0555 95.0856 51.3289C93.2255 49.5777 91.708 47.2344 90.5332 44.2992C89.3584 41.364 88.771 37.6642 88.771 33.1751V22.8896C88.771 18.3511 89.3584 14.602 90.5332 11.6668C91.708 8.73159 93.2255 6.41303 95.0856 4.66178C96.9457 2.93519 99.0261 1.72659 101.327 1.03595C103.627 0.345317 105.904 0 108.155 0C110.407 0 112.732 0.147993 114.861 0.419314C116.991 0.690634 118.875 0.937289 120.466 1.18394C121.249 1.28261 121.641 1.60326 121.641 2.1459V5.91972C121.641 6.16638 121.592 6.3637 121.494 6.51169C121.396 6.65969 121.152 6.73368 120.76 6.73368H120.54C119.903 6.68435 119.096 6.63502 118.117 6.56102C117.138 6.48703 116.11 6.41303 115.008 6.33903C113.907 6.26504 112.781 6.21571 111.606 6.14171C110.431 6.06771 109.306 6.06771 108.229 6.06771C106.418 6.06771 104.753 6.3637 103.187 6.93101C101.645 7.49831 100.299 8.4356 99.1484 9.74287C97.9981 11.0501 97.0925 12.7767 96.4317 14.9226C95.7709 17.0685 95.4282 19.7324 95.4282 22.8896V33.1751C95.4282 36.283 95.7709 38.8975 96.4317 41.0434C97.0925 43.1893 97.9981 44.9159 99.1484 46.2231C100.299 47.5304 101.645 48.4677 103.187 49.0597C104.729 49.6517 106.393 49.9476 108.229 49.9476C109.257 49.9476 110.334 49.9476 111.484 49.8736C112.634 49.8243 113.76 49.775 114.861 49.7257C115.963 49.6763 116.991 49.627 117.945 49.5283C118.9 49.4543 119.683 49.405 120.344 49.331H120.638C121.421 49.331 121.812 49.7257 121.812 50.5149V53.5488C121.812 53.9928 121.666 54.3381 121.372 54.5601Z" fill="#303030"/>
<path d="M160.606 55.2754C160.483 55.4727 160.287 55.596 160.043 55.6454C159.357 55.744 158.427 55.7933 157.253 55.8427C156.078 55.8673 154.805 55.892 153.483 55.966C152.137 56.0153 150.767 56.04 149.396 56.04H145.725C140.536 56.04 136.62 54.9794 134.001 52.8582C131.382 50.7369 130.085 47.2098 130.085 42.2767V13.7633C130.085 8.83025 131.407 5.30308 134.001 3.18185C136.62 1.06062 140.512 0 145.725 0C146.802 0 148.001 0 149.347 0.0246655C150.693 0.049331 152.039 0.0739965 153.361 0.098662C154.683 0.123327 155.931 0.172658 157.106 0.197324C158.281 0.246655 159.26 0.320651 160.043 0.419313C160.287 0.468644 160.459 0.591972 160.606 0.789296C160.728 0.98662 160.777 1.20861 160.777 1.45526V5.15509C160.777 5.74706 160.508 6.04305 159.969 6.04305H145.798C143.84 6.04305 142.274 6.16637 141.099 6.46236C139.924 6.73368 139.019 7.17766 138.382 7.7943C137.746 8.41093 137.33 9.20023 137.11 10.1622C136.889 11.1241 136.767 12.3327 136.767 13.7387V24.0242H159.308C159.7 24.0242 160.043 24.1722 160.336 24.4682C160.63 24.7642 160.777 25.1095 160.777 25.5041V28.2667C160.777 28.6613 160.63 29.0066 160.336 29.2779C160.043 29.5739 159.7 29.7219 159.308 29.7219H136.767V42.2027C136.767 43.5839 136.889 44.7679 137.11 45.7792C137.33 46.7658 137.746 47.5797 138.382 48.1964C139.019 48.813 139.924 49.257 141.099 49.5283C142.274 49.7996 143.84 49.9476 145.798 49.9476H159.969C160.508 49.9476 160.777 50.2436 160.777 50.8356V54.6094C160.777 54.8561 160.704 55.078 160.606 55.2754Z" fill="#303030"/>
<path d="M201.552 41.216C201.552 42.992 201.283 44.7679 200.745 46.4945C200.206 48.2457 199.276 49.8243 197.93 51.2302C196.584 52.6362 194.724 53.7955 192.374 54.6834C190.025 55.5714 187.039 56.0154 183.416 56.0154C180.822 56.0154 178.546 55.9167 176.588 55.6947C174.63 55.4727 172.843 55.2261 171.228 54.9794C170.591 54.8807 170.2 54.7327 170.053 54.5354C169.906 54.3381 169.833 54.0421 169.833 53.6475V50.6876C169.833 50.293 169.955 49.997 170.2 49.7996C170.444 49.6023 170.738 49.5037 171.081 49.5037H171.301C172.133 49.553 173.063 49.627 174.116 49.701C175.168 49.775 176.245 49.8243 177.346 49.849C178.448 49.8736 179.525 49.8983 180.577 49.923C181.63 49.923 182.56 49.9476 183.392 49.9476C185.595 49.9476 187.406 49.7503 188.874 49.331C190.318 48.9117 191.444 48.3197 192.276 47.5551C193.108 46.7905 193.696 45.8778 194.038 44.7925C194.381 43.7073 194.552 42.5233 194.552 41.2407C194.552 40.3034 194.406 39.4648 194.112 38.6755C193.818 37.9109 193.329 37.1462 192.643 36.4063C191.958 35.6663 191.052 34.9017 189.927 34.0877C188.801 33.2738 187.406 32.3365 185.741 31.3252L178.619 26.9594C175.242 24.8875 172.696 22.8156 171.032 20.6944C169.343 18.5978 168.486 16.0572 168.486 13.0974C168.486 8.60826 170.004 5.30308 173.063 3.18185C176.123 1.06062 180.455 0 186.108 0C187.185 0 188.311 0.0246655 189.511 0.0739965C190.71 0.123328 191.885 0.172659 193.035 0.246655C194.185 0.320652 195.262 0.419314 196.29 0.542641C197.318 0.665969 198.175 0.76463 198.86 0.863293C199.692 1.01129 200.108 1.4306 200.108 2.12123V5.30308C200.108 6.09238 199.692 6.48703 198.86 6.48703H198.713C197.098 6.38837 195.115 6.2897 192.815 6.19104C190.49 6.09238 188.262 6.04305 186.108 6.04305C182.29 6.04305 179.549 6.53636 177.86 7.52298C176.172 8.5096 175.315 10.3595 175.315 13.0727C175.315 13.9607 175.462 14.7746 175.78 15.4899C176.098 16.2052 176.563 16.9205 177.2 17.5865C177.836 18.2771 178.668 18.9924 179.696 19.7077C180.724 20.423 181.923 21.2123 183.294 22.051L190.025 26.1208C192.178 27.4034 193.965 28.6366 195.409 29.8206C196.853 31.0045 198.028 32.1885 198.958 33.3724C199.888 34.5564 200.549 35.7896 200.94 37.0722C201.332 38.3549 201.528 39.7361 201.528 41.216H201.552Z" fill="#303030"/>
<path d="M241.936 41.216C241.936 42.992 241.667 44.7679 241.129 46.4945C240.59 48.2457 239.636 49.8243 238.314 51.2302C236.968 52.6362 235.108 53.7955 232.758 54.6834C230.409 55.5714 227.423 56.0154 223.8 56.0154C221.206 56.0154 218.93 55.9167 216.972 55.6947C215.014 55.4727 213.227 55.2261 211.612 54.9794C210.975 54.8807 210.584 54.7327 210.437 54.5354C210.29 54.3381 210.217 54.0421 210.217 53.6475V50.6876C210.217 50.293 210.339 49.997 210.584 49.7996C210.828 49.6023 211.122 49.5037 211.465 49.5037H211.685C212.517 49.553 213.447 49.627 214.5 49.701C215.552 49.775 216.629 49.8243 217.73 49.849C218.832 49.8736 219.909 49.8983 220.961 49.923C222.014 49.923 222.944 49.9476 223.776 49.9476C225.979 49.9476 227.79 49.7503 229.258 49.331C230.702 48.9117 231.828 48.3197 232.685 47.5551C233.517 46.7905 234.104 45.8778 234.447 44.7925C234.79 43.7073 234.961 42.5233 234.961 41.2407C234.961 40.3034 234.814 39.4648 234.52 38.6755C234.227 37.9109 233.737 37.1462 233.052 36.4063C232.367 35.6663 231.461 34.9017 230.335 34.0877C229.209 33.2738 227.814 32.3365 226.15 31.3252L219.028 26.9594C215.65 24.8875 213.105 22.8156 211.44 20.6944C209.752 18.5978 208.895 16.0572 208.895 13.0974C208.895 8.60826 210.412 5.30308 213.496 3.18185C216.556 1.06062 220.888 0 226.541 0C227.618 0 228.744 0.0246655 229.968 0.0739965C231.167 0.123328 232.342 0.172659 233.492 0.246655C234.643 0.320652 235.72 0.419314 236.748 0.542641C237.776 0.665969 238.632 0.76463 239.317 0.863293C240.15 1.01129 240.566 1.4306 240.566 2.12123V5.30308C240.566 6.09238 240.15 6.48703 239.317 6.48703H239.171C237.555 6.38837 235.573 6.2897 233.272 6.19104C230.947 6.09238 228.72 6.04305 226.566 6.04305C222.748 6.04305 220.007 6.53636 218.318 7.52298C216.629 8.5096 215.772 10.3595 215.772 13.0727C215.772 13.9607 215.919 14.7746 216.237 15.4899C216.556 16.2052 217.021 16.9205 217.657 17.5865C218.293 18.2771 219.126 18.9924 220.153 19.7077C221.181 20.423 222.381 21.2123 223.751 22.051L230.482 26.1208C232.636 27.4034 234.422 28.6366 235.867 29.8206C237.311 31.0045 238.485 32.1885 239.415 33.3724C240.345 34.5564 241.006 35.7896 241.398 37.0722C241.789 38.3549 241.985 39.7361 241.985 41.216H241.936Z" fill="#303030"/>
<path d="M305.033 43.2633C303.981 46.1492 302.488 48.5417 300.554 50.441C298.621 52.3402 296.271 53.7461 293.554 54.6587C290.813 55.5714 287.754 56.0154 284.376 56.0154C283.005 56.0154 281.635 56.0154 280.264 55.9414C278.894 55.892 277.621 55.818 276.397 55.744C275.198 55.67 274.121 55.596 273.215 55.522C272.285 55.448 271.551 55.3741 271.013 55.2754C269.985 55.1274 269.471 54.5108 269.471 53.4255V2.58988C269.471 1.5046 269.985 0.887958 271.013 0.739965C271.551 0.641303 272.285 0.567307 273.215 0.468645C274.146 0.394648 275.198 0.320652 276.397 0.246655C277.596 0.172659 278.894 0.123328 280.264 0.0739965C281.635 0.0246655 283.005 0 284.376 0C287.754 0 290.813 0.443979 293.554 1.33194C296.295 2.2199 298.621 3.62583 300.554 5.52507C302.488 7.42432 303.981 9.81687 305.033 12.7027C306.085 15.5886 306.599 19.0171 306.599 23.0129V33.0024C306.599 36.9489 306.061 40.3774 305.033 43.2633ZM299.942 22.9882C299.942 19.6337 299.551 16.8465 298.767 14.602C297.984 12.3821 296.907 10.6062 295.512 9.29889C294.117 7.99162 292.477 7.05433 290.568 6.51169C288.659 5.96905 286.603 5.69773 284.425 5.69773C282.712 5.69773 281.243 5.69773 279.995 5.74706C278.747 5.74706 277.523 5.84572 276.299 5.91972V50.0956C277.474 50.1943 278.698 50.2436 279.971 50.2436H284.425C286.628 50.2436 288.659 49.9723 290.568 49.4297C292.477 48.887 294.117 47.9497 295.512 46.6178C296.907 45.2859 297.984 43.5099 298.767 41.29C299.551 39.0702 299.942 36.3076 299.942 32.9778V22.9636V22.9882Z" fill="#303030"/>
<path d="M347.032 55.2754C346.91 55.4727 346.714 55.596 346.469 55.6454C345.784 55.744 344.854 55.7933 343.679 55.8427C342.504 55.8673 341.232 55.892 339.91 55.966C338.564 56.0153 337.193 56.04 335.847 56.04H332.176C326.987 56.04 323.071 54.9794 320.452 52.8582C317.834 50.7369 316.536 47.2098 316.536 42.2767V13.7633C316.536 8.83025 317.858 5.30308 320.452 3.18185C323.071 1.06062 326.987 0 332.176 0C333.253 0 334.452 0 335.798 0.0246655C337.144 0.049331 338.49 0.0739965 339.812 0.098662C341.134 0.123327 342.382 0.172658 343.557 0.197324C344.732 0.246655 345.711 0.320651 346.494 0.419313C346.739 0.468644 346.91 0.591972 347.057 0.789296C347.179 0.98662 347.228 1.20861 347.228 1.45526V5.15509C347.228 5.74706 346.959 6.04305 346.42 6.04305H332.249C330.291 6.04305 328.725 6.16637 327.55 6.46236C326.375 6.73368 325.47 7.17766 324.833 7.7943C324.197 8.41093 323.756 9.20023 323.561 10.1622C323.34 11.1241 323.218 12.3327 323.218 13.7387V24.0242H345.76C346.151 24.0242 346.494 24.1722 346.788 24.4682C347.081 24.7642 347.228 25.1095 347.228 25.5041V28.2667C347.228 28.6613 347.081 29.0066 346.788 29.2779C346.494 29.5739 346.151 29.7219 345.76 29.7219H323.218V42.2027C323.218 43.5839 323.34 44.7679 323.561 45.7792C323.781 46.7658 324.197 47.5797 324.833 48.1964C325.47 48.813 326.375 49.257 327.55 49.5283C328.725 49.7996 330.291 49.9476 332.249 49.9476H346.42C346.959 49.9476 347.228 50.2436 347.228 50.8356V54.6094C347.228 54.8561 347.155 55.078 347.057 55.2754H347.032Z" fill="#303030"/>
<path d="M394.857 54.8807C394.441 55.3 393.951 55.4973 393.364 55.4973H388.86C387.686 55.4973 386.902 55.1027 386.511 54.3134L363.749 10.8775C363.7 10.7295 363.627 10.6555 363.529 10.6555C363.48 10.6555 363.455 10.7295 363.455 10.8775V54.0914C363.455 54.486 363.333 54.8067 363.088 55.078C362.843 55.3493 362.525 55.4973 362.134 55.4973H358.315C357.924 55.4973 357.606 55.448 357.361 55.3493C357.116 55.2507 356.994 55.004 356.994 54.6094V2.58985C356.994 1.99788 357.19 1.50457 357.63 1.10992C358.046 0.715276 358.536 0.517952 359.123 0.517952H363.162C364.19 0.517952 364.875 0.616614 365.217 0.838603C365.56 1.06059 365.878 1.45524 366.172 1.97322L388.787 45.1872L388.934 45.4091C388.934 45.4091 389.007 45.3352 389.007 45.1872V1.92388C389.007 1.52924 389.13 1.20859 389.374 0.9126C389.619 0.641279 389.937 0.493286 390.329 0.493286H394.172C394.563 0.493286 394.881 0.616614 395.126 0.9126C395.371 1.18392 395.493 1.52924 395.493 1.92388V53.3514C395.493 53.9434 395.297 54.4614 394.881 54.8807H394.857Z" fill="#303030"/>
<path d="M413.971 55.0534C413.727 55.3493 413.409 55.4973 413.017 55.4973H408.979C408.587 55.4973 408.269 55.3493 408.024 55.0534C407.779 54.7574 407.657 54.4121 407.657 54.0174V1.92388C407.657 1.52924 407.779 1.20859 408.024 0.9126C408.269 0.641279 408.587 0.493286 408.979 0.493286H413.017C413.409 0.493286 413.727 0.616614 413.971 0.9126C414.216 1.18392 414.339 1.52924 414.339 1.92388V54.0174C414.339 54.4121 414.216 54.7574 413.971 55.0534Z" fill="#303030"/>
<path d="M457.023 55.2754C456.901 55.4727 456.705 55.596 456.46 55.6454C455.775 55.744 454.845 55.7933 453.67 55.8427C452.495 55.8673 451.223 55.892 449.901 55.966C448.555 56.0153 447.184 56.04 445.814 56.04H442.142C436.954 56.04 433.038 54.9794 430.419 52.8582C427.8 50.7369 426.503 47.2098 426.503 42.2767V13.7633C426.503 8.83025 427.825 5.30308 430.419 3.18185C433.038 1.06062 436.929 0 442.142 0C443.219 0 444.419 0 445.765 0.0246655C447.111 0.049331 448.457 0.0739965 449.779 0.098662C451.1 0.123327 452.349 0.172658 453.523 0.197324C454.698 0.246655 455.677 0.320651 456.46 0.419313C456.705 0.468644 456.876 0.591972 457.023 0.789296C457.146 0.98662 457.195 1.20861 457.195 1.45526V5.15509C457.195 5.74706 456.925 6.04305 456.387 6.04305H442.216C440.258 6.04305 438.691 6.16637 437.517 6.46236C436.342 6.73368 435.436 7.17766 434.8 7.7943C434.164 8.41093 433.748 9.20023 433.527 10.1622C433.307 11.1241 433.185 12.3327 433.185 13.7387V24.0242H455.726C456.118 24.0242 456.46 24.1722 456.754 24.4682C457.048 24.7642 457.195 25.1095 457.195 25.5041V28.2667C457.195 28.6613 457.048 29.0066 456.754 29.2779C456.46 29.5739 456.118 29.7219 455.726 29.7219H433.185V42.2027C433.185 43.5839 433.307 44.7679 433.527 45.7792C433.748 46.7658 434.164 47.5797 434.8 48.1964C435.436 48.813 436.342 49.257 437.517 49.5283C438.691 49.7996 440.258 49.9476 442.216 49.9476H456.387C456.925 49.9476 457.195 50.2436 457.195 50.8356V54.6094C457.195 54.8561 457.121 55.078 457.023 55.2754Z" fill="#303030"/>
<path d="M502.547 43.2633C501.495 46.1492 500.002 48.5417 498.068 50.441C496.135 52.3402 493.785 53.7461 491.068 54.6587C488.327 55.5714 485.268 56.0154 481.89 56.0154C480.519 56.0154 479.149 56.0154 477.778 55.9414C476.408 55.892 475.135 55.818 473.911 55.744C472.712 55.67 471.635 55.596 470.729 55.522C469.799 55.448 469.065 55.3741 468.527 55.2754C467.499 55.1274 466.985 54.5108 466.985 53.4255V2.58988C466.985 1.5046 467.499 0.887958 468.527 0.739965C469.065 0.641303 469.799 0.567307 470.729 0.468645C471.659 0.394648 472.712 0.320652 473.911 0.246655C475.11 0.172659 476.408 0.123328 477.778 0.0739965C479.149 0.0246655 480.519 0 481.89 0C485.268 0 488.327 0.443979 491.068 1.33194C493.809 2.2199 496.135 3.62583 498.068 5.52507C500.002 7.42432 501.495 9.81687 502.547 12.7027C503.599 15.5886 504.138 19.0171 504.138 23.0129V33.0024C504.138 36.9489 503.599 40.3774 502.547 43.2633ZM497.456 22.9882C497.456 19.6337 497.065 16.8465 496.281 14.602C495.498 12.3821 494.421 10.6062 493.026 9.29889C491.631 7.99162 489.991 7.05433 488.082 6.51169C486.173 5.96905 484.117 5.69773 481.939 5.69773C480.226 5.69773 478.757 5.69773 477.509 5.74706C476.261 5.74706 475.037 5.84572 473.813 5.91972V50.0956C474.988 50.1943 476.212 50.2436 477.484 50.2436H481.939C484.142 50.2436 486.173 49.9723 488.082 49.4297C489.991 48.887 491.631 47.9497 493.026 46.6178C494.421 45.2859 495.498 43.5099 496.281 41.29C497.065 39.0702 497.456 36.3076 497.456 32.9778V22.9636V22.9882Z" fill="#303030"/>
</svg>
