<svg width="575" height="220" viewBox="0 0 575 220" fill="none" xmlns="http://www.w3.org/2000/svg">
<g clip-path="url(#clip0_4_695)">
<path d="M488.862 91.4812H484.345V119.485H490.667C517.468 119.786 530.718 130.324 530.718 150.798C530.718 171.272 519.573 181.213 497.595 181.514C475.612 181.815 464.468 170.374 464.172 147.188H423.52C421.109 192.658 445.799 215.543 497.29 215.543C549.081 215.243 574.679 192.959 574.679 148.993C574.679 124.604 563.835 108.646 541.857 100.816C559.624 92.6845 568.056 78.8329 567.149 60.1637C566.247 22.5244 543.361 4.15594 498.794 4.45676C462.057 4.45676 439.477 18.9099 430.744 48.4179C426.829 63.1719 431.947 70.4008 446.1 70.1H467.782C468.684 48.1171 478.62 37.2784 497.29 37.2784C515.959 37.2784 524.993 46.0113 524.692 63.1719C524.692 83.9469 511.442 91.4766 488.858 91.4766L488.862 91.4812Z" fill="black"/>
<path d="M89.431 134.239H32.5208L89.431 44.2064V134.244V134.239ZM88.8294 212.526H129.482V167.357H154.176V133.031H129.482V29.1516C129.482 14.9947 122.558 7.77039 108.707 7.77039H77.6898L0 130.324V167.361H88.8294V212.53V212.526Z" fill="black"/>
<path d="M398.529 110.002C398.529 168.12 351.411 215.233 293.298 215.233C235.184 215.233 188.067 168.12 188.067 110.002C188.067 51.8842 235.18 4.77142 293.298 4.77142C351.416 4.77142 398.529 51.8888 398.529 110.002Z" fill="#0D6EE0"/>
<path d="M331.979 6.91422C288.763 -9.48269 238.068 4.01248 208.652 39.6201C179.121 75.3712 174.937 127.265 199.095 167.028C222.92 206.246 269.515 226.664 314.513 218.042C366.022 208.175 402.75 161.873 403.407 110.002C402.828 64.3844 374.848 23.1815 331.983 6.91422M326.976 204.58C287.332 218.607 242.196 206.01 215.548 173.493C188.9 140.977 185.707 93.7859 207.514 57.896C229.2 22.1958 272.213 3.21647 313.212 11.607C359.904 21.1637 393.059 62.6813 393.66 110.002C393.128 152.024 366.938 190.441 326.971 204.58H326.976Z" fill="#F5F5F5"/>
<path d="M273.819 81.8226C273.819 91.1434 266.261 98.6962 256.945 98.6962C247.629 98.6962 240.076 91.1434 240.076 81.8226C240.076 72.5019 247.629 64.949 256.945 64.949C266.261 64.949 273.819 72.5019 273.819 81.8226Z" fill="white"/>
<path d="M346.742 81.8226C346.742 91.1434 339.189 98.6962 329.873 98.6962C320.557 98.6962 312.999 91.1434 312.999 81.8226C312.999 72.5019 320.552 64.949 329.873 64.949C339.194 64.949 346.742 72.5019 346.742 81.8226Z" fill="white"/>
<path d="M242 159C258.833 136 303.1 103.8 345.5 159" stroke="white" stroke-width="18" stroke-linecap="round"/>
</g>
<defs>
<clipPath id="clip0_4_695">
<rect width="574.684" height="220" fill="white"/>
</clipPath>
</defs>
</svg>
