<svg width="149" height="36" viewBox="0 0 149 36" fill="none" xmlns="http://www.w3.org/2000/svg">
<g opacity="0.4" clip-path="url(#clip0_4_675)">
<path d="M19.5409 35.5257C19.4625 35.6522 19.3372 35.7312 19.1805 35.7628C18.7417 35.8261 18.1462 35.8577 17.394 35.8893C16.6419 35.9051 15.827 35.9209 14.9808 35.9684C14.1189 36 13.2414 36.0158 12.3795 36.0158H10.029C6.70688 36.0158 4.19963 35.336 2.52291 33.9763C0.846183 32.6166 0.0156556 30.3557 0.0156556 27.1937V8.91699C-1.47047e-05 5.75493 0.846183 3.49406 2.50724 2.13438C4.18396 0.774691 6.69121 0.0948486 10.0133 0.0948486C10.7028 0.0948486 11.4707 0.0948486 12.3325 0.110659C13.1944 0.126469 14.0563 0.142279 14.9025 0.15809C15.7487 0.1739 16.5478 0.205521 17.3 0.221331C18.0522 0.252951 18.679 0.300382 19.1805 0.363623C19.3372 0.395244 19.4469 0.474295 19.5409 0.600778C19.6192 0.72726 19.6506 0.869552 19.6506 1.02766V3.3992C19.6506 3.77864 19.4782 3.96837 19.1334 3.96837H10.0603C8.80671 3.96837 7.80381 4.04742 7.05163 4.23714C6.29945 4.41106 5.71965 4.69564 5.31222 5.0909C4.9048 5.48616 4.62273 5.99208 4.49737 6.60868C4.35633 7.22529 4.27798 7.99999 4.27798 8.90118V15.4941H18.7103C18.9611 15.4941 19.1805 15.5889 19.3685 15.7786C19.5565 15.9684 19.6506 16.1897 19.6506 16.4427V18.2134C19.6506 18.4664 19.5565 18.6877 19.3685 18.8617C19.1805 19.0514 18.9611 19.1462 18.7103 19.1462H4.27798V27.1462C4.27798 28.0316 4.35633 28.7905 4.49737 29.4387C4.6384 30.0711 4.9048 30.5929 5.31222 30.9881C5.71965 31.3834 6.29945 31.668 7.05163 31.8419C7.80381 32.0158 8.80671 32.1107 10.0603 32.1107H19.1334C19.4782 32.1107 19.6506 32.3004 19.6506 32.6798V35.0988C19.6506 35.2569 19.6036 35.3992 19.5409 35.5257Z" fill="black"/>
<path d="M49.7846 35.0514C49.7846 35.4625 49.5809 35.668 49.1735 35.668H46.1648C45.8827 35.668 45.6477 35.6522 45.4753 35.589C45.3029 35.5416 45.1149 35.3518 44.9425 35.0514L36.5275 20.917H35.3053C34.5217 20.917 33.7852 20.917 33.0801 20.9012C32.3749 20.9012 31.3877 20.838 30.1497 20.7748V34.7194C30.1497 34.9724 30.0714 35.1937 29.9147 35.3834C29.758 35.5732 29.5542 35.668 29.3035 35.668H26.7649C26.5142 35.668 26.3105 35.5732 26.1538 35.3834C25.9971 35.1937 25.9187 34.9724 25.9187 34.7194V1.51783C25.9187 1.17001 25.9971 0.917042 26.1538 0.79056C26.3105 0.648267 26.6082 0.553406 27.047 0.490165C27.5484 0.426923 28.1282 0.363682 28.8021 0.316251C29.4759 0.268821 30.1811 0.2372 30.9176 0.189769C31.6541 0.158149 32.3906 0.142338 33.1427 0.126528C33.8949 0.126528 34.6158 0.110718 35.3053 0.110718C37.1544 0.110718 38.8781 0.284631 40.4921 0.632457C42.1062 0.980283 43.5008 1.54945 44.6761 2.33997C45.8514 3.13048 46.7759 4.17396 47.4498 5.4704C48.1236 6.76685 48.4527 8.37949 48.4527 10.3083V10.6404C48.4527 11.9684 48.2646 13.17 47.9042 14.2293C47.5438 15.2886 47.0267 16.2214 46.3685 17.0119C45.7103 17.8024 44.9268 18.4665 44.018 19.004C43.1091 19.5416 42.1218 19.9526 41.0563 20.2372L49.6123 34.6562C49.7063 34.7827 49.7533 34.925 49.7533 35.0831L49.7846 35.0514ZM44.2373 10.3083C44.2373 7.93681 43.4852 6.27673 41.9808 5.35973C40.4765 4.44273 38.2513 3.98424 35.3053 3.98424H34.036C33.5658 3.98424 33.0957 3.98424 32.61 4.01586C32.1242 4.01586 31.6541 4.04748 31.2153 4.06329C30.7765 4.06329 30.4161 4.11072 30.134 4.14234V17.17C31.1683 17.2016 32.1555 17.2333 33.0957 17.2333C34.036 17.2491 34.7725 17.2649 35.3053 17.2649C36.7469 17.2649 38.0162 17.1542 39.1445 16.9487C40.2571 16.7431 41.1816 16.3795 41.9338 15.8736C42.686 15.3676 43.2501 14.6878 43.6575 13.8182C44.0493 12.9645 44.2373 11.9052 44.2373 10.6246V10.2925V10.3083Z" fill="black"/>
<path d="M79.1665 35.0514C79.1665 35.4625 78.9628 35.668 78.5553 35.668H75.5466C75.2646 35.668 75.0295 35.6522 74.8571 35.589C74.6848 35.5416 74.4967 35.3518 74.3243 35.0514L65.9094 20.917H64.6871C63.9036 20.917 63.1671 20.917 62.4619 20.9012C61.7567 20.9012 60.7695 20.838 59.5316 20.7748V34.7194C59.5316 34.9724 59.4532 35.1937 59.2965 35.3834C59.1398 35.5732 58.9361 35.668 58.6854 35.668H56.1468C55.896 35.668 55.6923 35.5732 55.5356 35.3834C55.3789 35.1937 55.3006 34.9724 55.3006 34.7194V1.51783C55.3006 1.17001 55.3789 0.917042 55.5356 0.79056C55.6923 0.648267 55.9901 0.553406 56.4288 0.490165C56.9303 0.426923 57.5101 0.363682 58.1839 0.316251C58.8577 0.268821 59.5629 0.2372 60.2994 0.189769C61.0359 0.158149 61.7724 0.142338 62.5246 0.126528C63.2768 0.126528 63.9976 0.110718 64.6871 0.110718C66.5362 0.110718 68.2599 0.284631 69.874 0.632457C71.488 0.980283 72.8827 1.54945 74.0579 2.33997C75.2332 3.13048 76.1578 4.17396 76.8316 5.4704C77.5054 6.76685 77.8345 8.37949 77.8345 10.3083V10.6404C77.8345 11.9684 77.6464 13.17 77.286 14.2293C76.9256 15.2886 76.4085 16.2214 75.7503 17.0119C75.0922 17.8024 74.3087 18.4665 73.3998 19.004C72.4909 19.5416 71.5037 19.9526 70.4381 20.2372L78.9941 34.6562C79.0881 34.7827 79.1351 34.925 79.1351 35.0831L79.1665 35.0514ZM73.6192 10.3083C73.6192 7.93681 72.867 6.27673 71.3626 5.35973C69.8583 4.44273 67.6331 3.98424 64.6871 3.98424H63.4178C62.9477 3.98424 62.4776 3.98424 61.9918 4.01586C61.506 4.01586 61.0359 4.04748 60.5971 4.06329C60.1584 4.06329 59.7979 4.11072 59.5159 4.14234V17.17C60.5501 17.2016 61.5374 17.2333 62.4776 17.2333C63.4178 17.2491 64.1543 17.2649 64.6871 17.2649C66.1288 17.2649 67.3981 17.1542 68.5263 16.9487C69.6389 16.7431 70.5635 16.3795 71.3156 15.8736C72.0678 15.3676 72.6319 14.6878 73.0394 13.8182C73.4311 12.9645 73.6192 11.9052 73.6192 10.6246V10.2925V10.3083Z" fill="black"/>
<path d="M108.313 27.8578C107.686 29.7392 106.809 31.2728 105.681 32.4744C104.552 33.6759 103.205 34.5613 101.669 35.1305C100.118 35.6997 98.4096 35.9842 96.5762 35.9842C94.7428 35.9842 93.0191 35.6997 91.4677 35.1305C89.9163 34.5613 88.5844 33.6759 87.4561 32.4744C86.3278 31.2728 85.4346 29.7234 84.8078 27.8578C84.1653 25.9763 83.8362 23.7155 83.8362 21.091V14.9724C83.8362 12.3479 84.1653 10.087 84.8078 8.2214C85.4503 6.33997 86.3435 4.79057 87.4561 3.58898C88.5844 2.3874 89.932 1.50203 91.4677 0.932857C93.0191 0.363687 94.7114 0.0791016 96.5762 0.0791016C98.441 0.0791016 100.118 0.363687 101.669 0.932857C103.22 1.50203 104.552 2.3874 105.681 3.58898C106.809 4.79057 107.686 6.33997 108.313 8.2214C108.94 10.1028 109.254 12.3637 109.254 14.9724V21.091C109.254 23.7155 108.94 25.9763 108.313 27.8578ZM104.881 14.9724C104.881 12.9803 104.693 11.2886 104.302 9.89729C103.91 8.50598 103.361 7.36764 102.641 6.48226C101.92 5.59689 101.058 4.96448 100.024 4.56922C98.9894 4.17396 97.8455 3.96843 96.5605 3.96843C95.2756 3.96843 94.1316 4.15815 93.0974 4.56922C92.0632 4.96448 91.1856 5.6127 90.4491 6.48226C89.7126 7.36764 89.1485 8.50598 88.7724 9.89729C88.3806 11.2886 88.1926 12.9803 88.1926 14.9724V21.091C88.1926 23.0831 88.3806 24.7748 88.7724 26.1661C89.1642 27.5574 89.7283 28.6957 90.4491 29.5811C91.17 30.4665 92.0632 31.0989 93.0974 31.4941C94.1316 31.8894 95.2756 32.0949 96.5605 32.0949C97.8455 32.0949 98.9894 31.9052 100.024 31.4941C101.058 31.0989 101.92 30.4506 102.641 29.5811C103.361 28.7115 103.91 27.5574 104.302 26.1661C104.693 24.7748 104.881 23.0831 104.881 21.091V14.9724Z" fill="black"/>
<path d="M139.623 35.0514C139.623 35.4625 139.419 35.668 139.011 35.668H136.003C135.721 35.668 135.486 35.6522 135.313 35.589C135.141 35.5416 134.953 35.3518 134.78 35.0514L126.366 20.917H125.143C124.36 20.917 123.623 20.917 122.918 20.9012C122.213 20.9012 121.226 20.838 119.988 20.7748V34.7194C119.988 34.9724 119.909 35.1937 119.753 35.3834C119.596 35.5732 119.392 35.668 119.141 35.668H116.603C116.352 35.668 116.148 35.5732 115.992 35.3834C115.835 35.1937 115.757 34.9724 115.757 34.7194V1.51783C115.757 1.17001 115.835 0.917042 115.992 0.79056C116.148 0.648267 116.446 0.553406 116.885 0.490165C117.386 0.426923 117.966 0.363682 118.64 0.316251C119.314 0.268821 120.019 0.2372 120.756 0.189769C121.492 0.158149 122.229 0.142338 122.981 0.126528C123.733 0.126528 124.454 0.110718 125.143 0.110718C126.992 0.110718 128.716 0.284631 130.33 0.632457C131.944 0.980283 133.339 1.54945 134.514 2.33997C135.689 3.13048 136.614 4.17396 137.288 5.4704C137.962 6.76685 138.291 8.37949 138.291 10.3083V10.6404C138.291 11.9684 138.103 13.17 137.742 14.2293C137.382 15.2886 136.865 16.2214 136.206 17.0119C135.548 17.8024 134.765 18.4665 133.856 19.004C132.947 19.5416 131.96 19.9526 130.894 20.2372L139.45 34.6562C139.544 34.7827 139.591 34.925 139.591 35.0831L139.623 35.0514ZM134.075 10.3083C134.075 7.93681 133.323 6.27673 131.819 5.35973C130.314 4.44273 128.089 3.98424 125.143 3.98424H123.874C123.404 3.98424 122.934 3.98424 122.448 4.01586C121.962 4.01586 121.492 4.04748 121.053 4.06329C120.615 4.06329 120.254 4.11072 119.972 4.14234V17.17C121.006 17.2016 121.993 17.2333 122.934 17.2333C123.874 17.2491 124.61 17.2649 125.143 17.2649C126.585 17.2649 127.854 17.1542 128.982 16.9487C130.095 16.7431 131.02 16.3795 131.772 15.8736C132.524 15.3676 133.088 14.6878 133.496 13.8182C133.887 12.9645 134.075 11.9052 134.075 10.6246V10.2925V10.3083Z" fill="black"/>
<path d="M148.32 25.5652C148.32 25.8182 148.226 26.0237 148.069 26.1976C147.897 26.3715 147.677 26.4664 147.442 26.4664H145.75C145.499 26.4664 145.28 26.3715 145.092 26.1976C144.904 26.0237 144.809 25.8182 144.809 25.5652L144.48 0.901186C144.48 0.648222 144.574 0.442688 144.762 0.252964C144.951 0.0790514 145.17 0 145.421 0H147.771C148.022 0 148.241 0.0790514 148.429 0.252964C148.617 0.426878 148.711 0.648222 148.711 0.901186L148.335 25.5652H148.32ZM147.709 35.668H145.452C145.201 35.668 144.998 35.5889 144.825 35.3992C144.653 35.2253 144.559 35.0198 144.559 34.7668V30.3083C144.559 30.0553 144.637 29.8498 144.825 29.6601C144.998 29.4862 145.201 29.4071 145.452 29.4071H147.709C147.959 29.4071 148.163 29.4862 148.335 29.6601C148.508 29.834 148.586 30.0553 148.586 30.3083V34.7668C148.586 35.3676 148.288 35.668 147.693 35.668H147.709Z" fill="black"/>
</g>
<defs>
<clipPath id="clip0_4_675">
<rect width="148.696" height="36" fill="white"/>
</clipPath>
</defs>
</svg>
