<svg xmlns="http://www.w3.org/2000/svg" width="50" height="62" viewBox="0 0 50 62">
  <defs>
    <style>
      .cls-1 {
        fill: gray;
        fill-rule: evenodd;
      }
    </style>
  </defs>
  <g id="import_icon">
    <path class="cls-1" d="M647.56,56.188h-7.531a0.915,0.915,0,0,1,0-1.829h7.531a6.675,6.675,0,0,0,6.626-6.706V17.547L639.655,2.841H617.44a6.675,6.675,0,0,0-6.627,6.707v38.1a6.675,6.675,0,0,0,6.627,6.706h7.53a0.915,0.915,0,0,1,0,1.829h-7.53a8.495,8.495,0,0,1-8.434-8.535V9.548a8.5,8.5,0,0,1,8.434-8.536h22.589a0.9,0.9,0,0,1,.639.268l15.061,15.242a0.921,0.921,0,0,1,.264.647V47.653A8.493,8.493,0,0,1,647.56,56.188Zm-14.15-36.8,9.746,9.864a0.9,0.9,0,0,0,1.277,0,0.92,0.92,0,0,0,0-1.293L633.138,16.522a0.894,0.894,0,0,0-1.277,0L620.566,27.954a0.922,0.922,0,0,0,0,1.293,0.9,0.9,0,0,0,1.278,0l9.743-9.862,0.009,0.784V59.084a0.9,0.9,0,1,0,1.808,0V20.169Z" transform="translate(-608)"/>
  </g>
</svg>
