<svg width="44" height="43" viewBox="0 0 44 43" fill="none" xmlns="http://www.w3.org/2000/svg">
<path d="M31.2658 0H12.7334C10.2718 0 9.04105 1.82972e-07 8.05197 0.611293C7.06287 1.22259 6.51244 2.32343 5.4116 4.52512L2.53908 11.7865C1.87542 13.4641 1.29476 15.4414 2.41191 16.8581C3.16138 17.8085 4.32315 18.4186 5.62747 18.4186C7.88798 18.4186 9.72049 16.5862 9.72049 14.3256C9.72049 16.5862 11.553 18.4186 13.8135 18.4186C16.074 18.4186 17.9065 16.5862 17.9065 14.3256C17.9065 16.5862 19.739 18.4186 21.9996 18.4186C24.2602 18.4186 26.0926 16.5862 26.0926 14.3256C26.0926 16.5862 27.9251 18.4186 30.1856 18.4186C32.4462 18.4186 34.2787 16.5862 34.2787 14.3256C34.2787 16.5862 36.1111 18.4186 38.3717 18.4186C39.6759 18.4186 40.8377 17.8085 41.5874 16.8581C42.7046 15.4414 42.124 13.4641 41.4603 11.7865L38.5878 4.52512C37.4868 2.32343 36.9365 1.22259 35.9474 0.611293C34.9583 1.82972e-07 33.7275 0 31.2658 0Z" fill="#1C274C"/>
<path d="M16.8838 39.3953V33.7674C16.8838 31.8547 16.8838 30.8984 17.2951 30.186C17.5645 29.7194 17.9521 29.3318 18.4187 29.0625C19.1311 28.6511 20.0874 28.6511 22.0001 28.6511C23.9127 28.6511 24.8691 28.6511 25.5815 29.0625C26.0481 29.3318 26.4357 29.7194 26.705 30.186C27.1163 30.8984 27.1163 31.8547 27.1163 33.7674V39.3953H16.8838Z" fill="#1C274C"/>
<path fill-rule="evenodd" clip-rule="evenodd" d="M5.62793 18.4187C7.88824 18.4185 9.7205 16.5861 9.7205 14.3257C9.7205 16.5863 11.553 18.4187 13.8135 18.4187C16.074 18.4187 17.9065 16.5863 17.9065 14.3257C17.9065 16.5863 19.739 18.4187 21.9996 18.4187C24.2602 18.4187 26.0926 16.5863 26.0926 14.3257C26.0926 16.5863 27.9251 18.4187 30.1857 18.4187C32.4462 18.4187 34.2787 16.5863 34.2787 14.3257C34.2787 16.5863 36.1111 18.4187 38.3717 18.4187L38.3721 39.3955H27.1163V33.7675C27.1163 31.8549 27.1163 30.8985 26.705 30.1861C26.4356 29.7195 26.048 29.3319 25.5814 29.0626C24.869 28.6513 23.9127 28.6513 22 28.6513C20.0874 28.6513 19.131 28.6513 18.4186 29.0626C17.952 29.3319 17.5644 29.7195 17.295 30.1861C16.8837 30.8985 16.8837 31.8549 16.8837 33.7675V39.3955H5.62793V18.4187Z" fill="#5991FF"/>
<path d="M27.1163 39.3953H16.8837H5.62791H1.53488C0.687198 39.3953 0 40.0825 0 40.9301C0 41.7778 0.687198 42.465 1.53488 42.465H42.4651C43.3128 42.465 44 41.7778 44 40.9301C44 40.0825 43.3128 39.3953 42.4651 39.3953H38.3721H27.1163Z" fill="#1C274C"/>
</svg>
