<svg width="44" height="40" viewBox="0 0 44 40" fill="none" xmlns="http://www.w3.org/2000/svg">
<path d="M0 4.4C0 2.32582 1.3113e-07 1.28874 0.644358 0.644358C1.28874 1.3113e-07 2.32582 0 4.4 0H39.6C41.6742 0 42.7112 1.3113e-07 43.3556 0.644358C44 1.28874 44 2.32582 44 4.4C44 6.47418 44 7.51126 43.3556 8.15564C42.7112 8.8 41.6742 8.8 39.6 8.8H4.4C2.32582 8.8 1.28874 8.8 0.644358 8.15564C1.3113e-07 7.51126 0 6.47418 0 4.4Z" fill="#5991FF"/>
<path d="M39.7516 12.0998C40.0623 12.1 40.3813 12.1001 40.7 12.0957V21.9998C40.7 30.2964 40.7 34.445 38.1225 37.0223C35.5452 39.5998 31.3967 39.5998 23.1 39.5998H20.9C12.6033 39.5998 8.45498 39.5998 5.8775 37.0223C3.30005 34.445 3.30005 30.2964 3.30005 21.9998V12.0957C3.61878 12.1001 3.93803 12.1 4.24856 12.0998L20.35 12.0998V26.4999L16.6265 22.3626C16.0169 21.6852 14.9736 21.6304 14.2963 22.24C13.6189 22.8496 13.564 23.8929 14.1736 24.5703L20.7735 31.9035C21.0866 32.2511 21.5323 32.4498 22 32.4498C22.4678 32.4498 22.9135 32.2511 23.2265 31.9035L29.8265 24.5703C30.4362 23.8929 30.3812 22.8496 29.7038 22.24C29.0264 21.6304 27.9832 21.6852 27.3735 22.3626L23.65 26.4999V12.0998L39.7516 12.0998Z" fill="#1C274C" stroke="#1C274C" stroke-width="0.8" stroke-linejoin="round"/>
</svg>
