<svg xmlns="http://www.w3.org/2000/svg" width="19" height="17" viewBox="0 0 19 17">
  <defs>
    <style>
      .cls-1 {
        fill: red;
        fill-rule: evenodd;
      }
    </style>
  </defs>
  <path class="cls-1" d="M5954.49,2484.18a0.784,0.784,0,0,1-.8-0.77v-2.92a0.805,0.805,0,0,1,1.61,0v2.92A0.786,0.786,0,0,1,5954.49,2484.18Zm0,2.91a0.784,0.784,0,0,1-.8-0.77v-0.01A0.805,0.805,0,1,1,5954.49,2487.09Zm6.67,3.9h-13.33a2.827,2.827,0,0,1-2.44-1.34,2.613,2.613,0,0,1-.03-2.71l6.66-11.54a2.888,2.888,0,0,1,4.95,0l6.66,11.54a2.635,2.635,0,0,1-.03,2.71A2.839,2.839,0,0,1,5961.16,2490.99Zm-6.67-15.44a1.2,1.2,0,0,0-1.05.6h0l-6.67,11.55a1.124,1.124,0,0,0,.01,1.16,1.208,1.208,0,0,0,1.05.57h13.33a1.233,1.233,0,0,0,1.05-.57,1.124,1.124,0,0,0,.01-1.16l-6.67-11.55A1.206,1.206,0,0,0,5954.49,2475.55Zm-1.76.23h0Z" transform="translate(-5945 -2474)"/>
</svg>
