<svg width="44" height="44" viewBox="0 0 44 44" fill="none" xmlns="http://www.w3.org/2000/svg">
<path d="M22 44C34.1503 44 44 34.1503 44 22C44 9.84974 34.1503 0 22 0C9.84974 0 0 9.84974 0 22C0 34.1503 9.84974 44 22 44Z" fill="#1C274C"/>
<path d="M15.0603 7.22615C13.3614 3.7249 11.8516 6.11668 10.4566 4.8463L9.16675 4.125C12.2753 1.51187 16.8056 0 21.1845 0C25.1418 0 29.5798 0.573488 32.5417 2.75C32.9601 4.02039 32.9204 5.14627 32.0834 6.41667C31.7802 6.87681 30.7084 7.75901 29.7175 7.75901C27.9422 7.75901 25.6667 4.58333 23.8664 5.46422C23.3751 5.70462 22.2352 6.44189 22.385 6.98811C22.4929 7.38057 22.4573 7.34153 22.4584 7.75901C22.462 9.10874 21.5163 10.5563 20.1667 10.5417C18.3334 10.5417 16.2242 9.625 15.0603 7.22615Z" fill="#5991FF"/>
<path d="M25.1604 38.5575C27.3342 34.4609 34.5801 34.4609 34.5801 34.4609C42.1305 34.3821 43.1504 27.0478 43.8322 24.7307C42.6119 34.5898 34.8688 42.4269 25.0548 43.7902C24.3451 42.2964 24.2181 40.3333 25.1604 38.5575Z" fill="#5991FF"/>
<path d="M31.5955 21.1254L25.9247 16.2771C25.4398 15.8626 24.7106 15.9197 24.2962 16.4043C23.8817 16.8892 23.9386 17.6183 24.4234 18.0328L29.0675 22.0034L24.4235 25.9739C23.9386 26.3884 23.8817 27.1174 24.2963 27.6023C24.5248 27.8695 24.8488 28.0068 25.1747 28.0067C25.4401 28.0067 25.707 27.9156 25.9248 27.7296L31.5956 22.8813C31.8523 22.6618 32 22.341 32 22.0033C31.9999 21.6656 31.8522 21.3449 31.5955 21.1254Z" fill="white"/>
<path d="M19.7037 16.4046C19.2891 15.9197 18.5601 15.8625 18.0752 16.2773L12.4043 21.1256C12.1477 21.3451 12 21.6659 12 22.0036C12 22.3413 12.1477 22.6621 12.4043 22.8816L18.0752 27.7299C18.2929 27.9159 18.5597 28.007 18.8253 28.007C19.1512 28.007 19.4753 27.8698 19.7037 27.6027C20.1182 27.1178 20.0612 26.3887 19.5764 25.9742L14.9323 22.0035L19.5763 18.033C20.0612 17.6185 20.1182 16.8895 19.7037 16.4046Z" fill="white"/>
</svg>
