<svg xmlns="http://www.w3.org/2000/svg" width="22" height="23" viewBox="0 0 22 23">
  <defs>
    <style>
      .cls-1 {
        fill: #606060;
        fill-rule: evenodd;
        opacity: 0.8;
      }
    </style>
  </defs>
  <path class="cls-1" d="M0,3.513A3.44,3.44,0,0,1,3.36,0H15.539a3.889,3.889,0,0,1,2.809,1.216l2.488,2.6A4.248,4.248,0,0,1,22,6.753V19.485A3.44,3.44,0,0,1,18.638,23H3.36A3.44,3.44,0,0,1,0,19.485V3.513Zm3.361-1.6a1.564,1.564,0,0,0-1.527,1.6V19.485a1.563,1.563,0,0,0,1.527,1.6H3.666V14.374A2.815,2.815,0,0,1,6.416,11.5h9.166a2.815,2.815,0,0,1,2.75,2.875v6.708h0.306a1.564,1.564,0,0,0,1.528-1.6V6.753a2.287,2.287,0,0,0-.627-1.581l-2.487-2.6a2.11,2.11,0,0,0-1.164-.626V5.43A2.815,2.815,0,0,1,13.138,8.3h-5.5A2.814,2.814,0,0,1,4.889,5.43V1.916H3.36ZM16.5,21.083V14.374a0.938,0.938,0,0,0-.916-0.958H6.416a0.938,0.938,0,0,0-.916.958v6.708h11ZM6.721,1.916V5.43a0.938,0.938,0,0,0,.916.958h5.5a0.938,0.938,0,0,0,.917-0.958V1.916H6.721Z"/>
</svg>
