<svg xmlns="http://www.w3.org/2000/svg" width="110" height="110" viewBox="0 0 110 110">
  <defs>
    <style>
      .cls-1 {
        fill: #202020;
        fill-rule: evenodd;
      }
    </style>
  </defs>
  <g id="swagger_publish_icon">
    <path class="cls-1" d="M543.191,13.019c-0.517-.014-1.031,0-1.561.014-3.594.217-5.756,1.906-6.358,5.4-0.415,2.45-.344,23.938-0.517,26.4a25.288,25.288,0,0,1-.429,3.794c-0.486,2.236-1.443,2.937-3.72,3.049a6.627,6.627,0,0,0-.891.157v5.356c4.125,0.2,4.686,1.663,5.013,5.972,0.132,1.576-.042,22.154.057,23.727a28.577,28.577,0,0,0,.572,4.4c0.946,3.938,4.8,5.255,9.44,4.465v-3.71c-0.748,0-1.4.014-2.035,0a3.581,3.581,0,0,1-3.32-2.96c-0.218-1.96-.157-22.951-0.273-24.928-0.244-3.682-.646-7.289-4.237-9.624A8.368,8.368,0,0,0,538.54,49.4a38.189,38.189,0,0,0,.6-4.54c0.115-1.518-.069-22.08.058-23.584,0.211-2.433,1.371-4.434,4.291-4.335,0.443,0,.872-0.058,1.361-0.1v-3.8c-0.585,0-1.13-.014-1.661-0.03h0Zm61.844,0.044a14.759,14.759,0,0,0-2.994.217v3.666c0.9,0,2.6,0,3.29.014,1.207,0.014,2.123,1.487,2.236,2.817,0.112,1.218.112,21.45,0.228,22.682,0.245,2.464.374,4.938,0.8,7.361a7.76,7.76,0,0,0,3.451,4.71c-2.992,2-3.88,4.883-4.023,8.12-0.088,2.2-.143,23.441-0.256,25.673-0.1,2.035-.817,3.692-2.868,3.736-0.572.03-2.13,0.074-2.76,0.113v3.784c1.188,0,2.291.074,3.4,0,3.407-.2,5.486-1.861,6.157-5.183a41.958,41.958,0,0,0,.5-5.513c0.113-1.691.1-22.4,0.272-24.07,0.256-2.62,1.463-3.709,4.081-3.88a5.049,5.049,0,0,0,.734-0.157v-5.37c-0.443-.058-0.745-0.1-1.075-0.113-1.961-.088-2.937-0.748-3.44-2.607a18.228,18.228,0,0,1-.542-3.641c-0.143-2.263-.129-23.553-0.272-25.816-0.3-4.366-2.923-6.431-6.918-6.544h0Zm-47.387,37.1c-5.513,0-5.913,8.119-.443,8.642h0.3A4.245,4.245,0,0,0,562,54.817V54.582a4.341,4.341,0,0,0-4.249-4.415h-0.1Zm15.736,0a4.169,4.169,0,0,0-4.292,4.015,2.851,2.851,0,0,0,.019.4,4.333,4.333,0,1,0,4.273-4.411v0Zm16,0a4.436,4.436,0,0,0-4.492,4.292,4.354,4.354,0,0,0,4.373,4.354H589.3c2.183,0.381,4.37-1.725,4.512-4.25a4.4,4.4,0,0,0-4.435-4.392v0Z" transform="translate(-518)"/>
  </g>
</svg>
