<svg width="18" height="16" viewBox="0 0 18 16" fill="none" xmlns="http://www.w3.org/2000/svg">
<path d="M1.23047 6.14451C1.23047 5.24925 1.95622 4.5235 2.85148 4.5235V4.5235C3.46547 4.5235 4.02677 4.1766 4.30136 3.62743L5.01903 2.19208C5.04806 2.13403 5.06257 2.105 5.07684 2.07849C5.41539 1.44947 6.06373 1.04878 6.77774 1.02727C6.80784 1.02637 6.84029 1.02637 6.90519 1.02637H11.2929C11.3578 1.02637 11.3902 1.02637 11.4203 1.02727C12.1343 1.04878 12.7827 1.44947 13.1212 2.07849C13.1355 2.105 13.15 2.13403 13.179 2.19208L13.8967 3.62743C14.1713 4.1766 14.7326 4.5235 15.3466 4.5235V4.5235C16.2418 4.5235 16.9676 5.24925 16.9676 6.14451V10.5186C16.9676 11.913 16.9676 12.6101 16.7403 13.1603C16.4358 13.8975 15.8502 14.4831 15.113 14.7877C14.5628 15.0149 13.8656 15.0149 12.4713 15.0149H5.72678C4.33242 15.0149 3.63524 15.0149 3.08509 14.7877C2.34786 14.4831 1.76226 13.8975 1.45772 13.1603C1.23047 12.6101 1.23047 11.913 1.23047 10.5186V6.14451Z" stroke="#EF260A" stroke-width="1.3"/>
<circle cx="9.15657" cy="8.9532" r="2.61399" stroke="#EF260A" stroke-width="1.3"/>
</svg>
