<svg xmlns="http://www.w3.org/2000/svg" width="32" height="32" viewBox="0 0 32 32">
  <defs>
    <style>
      .cls-1 {
        fill: #505050;
        fill-rule: evenodd;
      }
    </style>
  </defs>
  <g id="copy_api_token">
    <path id="copy_iocn" data-name="copy iocn" class="cls-1" d="M14.9,3h5.7V6.5a2.1,2.1,0,0,0,2.1,2.1h3.5v9.9a2.1,2.1,0,0,1-2.1,2.1H24V22h0.8a2.8,2.8,0,0,0,2.8-2.8V7.22a1.4,1.4,0,0,0-.41-0.99L22.97,2.01a1.4,1.4,0,0,0-.99-0.41H14.2a2.8,2.8,0,0,0-2.8,2.8V6.6h1.4V5.1A2.1,2.1,0,0,1,14.9,3ZM22,3h0.434L26.2,6.766V7.2H23.05A1.05,1.05,0,0,1,22,6.15V3ZM7.2,24.8H17v1.4H7.2V24.8Zm0,5.6H19.8a2.8,2.8,0,0,0,2.8-2.8V13.62a1.4,1.4,0,0,0-.41-0.99L17.97,8.41A1.4,1.4,0,0,0,16.98,8H7.2a2.8,2.8,0,0,0-2.8,2.8V27.6A2.8,2.8,0,0,0,7.2,30.4ZM17,9.4h0.434L21.2,13.166V13.6H18.05A1.05,1.05,0,0,1,17,12.55V9.4Zm-9.1,0h7.7v3.5A2.1,2.1,0,0,0,17.7,15h3.5V26.9A2.1,2.1,0,0,1,19.1,29H7.9a2.1,2.1,0,0,1-2.1-2.1V11.5A2.1,2.1,0,0,1,7.9,9.4Zm-0.7,7H19.8v1.4H7.2V16.4Zm5.6,4.2h7V22H7.2V20.6h5.6Z"/>
  </g>
</svg>
