<svg xmlns="http://www.w3.org/2000/svg" width="28" height="20" viewBox="0 0 28 20">
  <defs>
    <style>
      .cls-1 {
        fill: #7e7e7e;
        fill-rule: evenodd;
      }
    </style>
  </defs>
  <g id="csv_icon">
    <path id="Shape_3_copy" data-name="Shape 3 copy" class="cls-1" d="M225.781,5.948l-4.338-4.581a0.843,0.843,0,0,0-.577-0.287h-9.2a1.661,1.661,0,0,0-1.592,1.666V8.289a0.8,0.8,0,0,0,1.592,0V3.537a0.869,0.869,0,0,1,.8-0.874h7.165v3.25a1.52,1.52,0,0,0,1.592,1.5h3.184V8.289a0.8,0.8,0,0,0,1.592,0v-1.8a0.788,0.788,0,0,0-.219-0.546h0Z" transform="translate(-204)"/>
    <path class="cls-1" d="M218.4,13.536c-0.782-.295-1.041-0.444-1.041-0.744a0.628,0.628,0,0,1,.766-0.473,2.745,2.745,0,0,1,1.2.273l0.109,0.053,0.356-1.284-0.078-.035a3.814,3.814,0,0,0-1.565-.308c-1.41,0-2.357.76-2.357,1.89,0,0.835.574,1.457,1.705,1.848,0.7,0.248.933,0.436,0.933,0.742,0,0.345-.309.543-0.847,0.543a3.354,3.354,0,0,1-1.451-.359l-0.113-.058L215.7,16.933l0.068,0.037a4.017,4.017,0,0,0,1.74.374c1.851,0,2.508-1.047,2.508-1.943A1.981,1.981,0,0,0,218.4,13.536Zm-4.7-1.207a2.816,2.816,0,0,1,1.094.212l0.108,0.045,0.323-1.257-0.07-.037a3.64,3.64,0,0,0-1.517-.275,3.132,3.132,0,0,0-3.358,3.256,2.924,2.924,0,0,0,3.226,3.071,3.93,3.93,0,0,0,1.576-.266l0.069-.034L214.907,15.8l-0.114.045a3.271,3.271,0,0,1-1.085.187,1.677,1.677,0,0,1-1.812-1.839A1.685,1.685,0,0,1,213.7,12.328Zm10.77-1.214-0.783,2.61c-0.176.586-.328,1.157-0.454,1.705-0.122-.561-0.271-1.109-0.451-1.729l-0.746-2.585h-1.693l1.954,6.071,0.023,0.07h1.722l2.077-6.141h-1.649Z" transform="translate(-204)"/>
  </g>
</svg>
