<svg xmlns="http://www.w3.org/2000/svg" width="32" height="32" viewBox="0 0 32 32">
  <defs>
    <style>
      .cls-1 {
        fill: #fff;
        fill-rule: evenodd;
      }
    </style>
  </defs>
  <g id="icn_logout">
    <path class="cls-1" d="M1237.05,38.713l-1.88,1.871a1.171,1.171,0,0,0,.82,2.006,1.174,1.174,0,0,0,.83-0.342l3.92-3.891a1.158,1.158,0,0,0,0-1.659l-3.91-3.935a1.175,1.175,0,0,0-1.67,1.655s1.01,1.011,1.87,1.879l0.07,0.055h-8.94a1.174,1.174,0,1,0,0,2.348h8.94A0.121,0.121,0,0,0,1237.05,38.713Zm-7.46,9.812h-6.41a3.131,3.131,0,0,1-3.13-3.131V29.612a3.131,3.131,0,0,1,3.13-3.131h6.41a1.174,1.174,0,0,1,0,2.348h-6.41a0.782,0.782,0,0,0-.78.782V45.394a0.782,0.782,0,0,0,.78.782h6.41A1.174,1.174,0,0,1,1229.59,48.525Z" transform="translate(-1214 -21)"/>
  </g>
</svg>
