<svg xmlns="http://www.w3.org/2000/svg" width="32" height="32" viewBox="0 0 32 32">
  <defs>
    <style>
      .cls-1 {
        fill: #fff;
        fill-rule: evenodd;
      }
    </style>
  </defs>
  <g id="icn_notification">
    <path id="notification_icon" data-name="notification icon" class="cls-1" d="M1361.97,49a4.779,4.779,0,0,1-4.08-2.385,1.226,1.226,0,1,1,2.04-1.36,2.256,2.256,0,0,0,4.08,0,1.226,1.226,0,1,1,2.04,1.36A4.779,4.779,0,0,1,1361.97,49Zm6.23-4.659h-12.46a3.254,3.254,0,0,1-3.25-3.25,3.194,3.194,0,0,1,.47-1.672,11.67,11.67,0,0,0,1.66-6.01v-1.33a6.135,6.135,0,0,1,6.12-6.131h2.45a6.138,6.138,0,0,1,6.13,6.131v1.33a11.664,11.664,0,0,0,1.66,6.009A3.248,3.248,0,0,1,1368.2,44.339ZM1360.74,28.4a3.681,3.681,0,0,0-3.67,3.678v1.33a14.205,14.205,0,0,1-2.01,7.271,0.752,0.752,0,0,0-.12.411,0.8,0.8,0,0,0,.8.8h12.46a0.826,0.826,0,0,0,.41-0.113,0.8,0.8,0,0,0,.27-1.1,14.2,14.2,0,0,1-2.01-7.27v-1.33a3.683,3.683,0,0,0-3.68-3.678h-2.45Z" transform="translate(-1346 -21)"/>
  </g>
</svg>
