<svg xmlns="http://www.w3.org/2000/svg" width="24" height="24" viewBox="0 0 24 24">
  <defs>
    <style>
      .cls-1 {
        fill: #7c7c7c;
        fill-rule: evenodd;
      }
    </style>
  </defs>
  <g id="icon_publish">
    <path class="cls-1" d="M466.052,213H459.1a4.461,4.461,0,0,0-3.129,1.548,4.463,4.463,0,0,0-3.13-1.548h-6.954a0.918,0.918,0,0,0-.916.919v17.456a0.917,0.917,0,0,0,.916.918h6.862a3.523,3.523,0,0,1,2.223,1.138l0.233,0.292a0.894,0.894,0,0,0,.2.216,0.925,0.925,0,0,0,1.327-.216l0.233-.292a3.524,3.524,0,0,1,2.224-1.138h6.861a0.918,0.918,0,0,0,.917-0.918V213.915A0.919,0.919,0,0,0,466.052,213ZM453.019,230.47l-0.18-.018L447,230V215h6a2.217,2.217,0,0,1,2.052,1.659v0.012h0V231.15A7.186,7.186,0,0,0,453.019,230.47ZM465,230l-5.9.452-0.18.018A6.477,6.477,0,0,0,457,231l-0.114-14.329h0v-0.012A2.3,2.3,0,0,1,459,215h6v15Zm-12.7-12.41h-2.75a0.919,0.919,0,0,0,0,1.837h2.75A0.919,0.919,0,0,0,452.3,217.59Zm0,3.675h-2.75a0.919,0.919,0,0,0,0,1.837h2.75A0.919,0.919,0,0,0,452.3,221.265Zm0,3.675h-2.75a0.919,0.919,0,0,0,0,1.837h2.75A0.919,0.919,0,0,0,452.3,224.94Zm6.417-6.431a0.917,0.917,0,0,0,.916.918h2.751a0.919,0.919,0,0,0,0-1.837h-2.751A0.917,0.917,0,0,0,458.719,218.509Zm3.667,2.756h-2.751a0.919,0.919,0,0,0,0,1.837h2.751A0.919,0.919,0,0,0,462.386,221.265Zm0,3.675h-2.751a0.919,0.919,0,0,0,0,1.837h2.751A0.919,0.919,0,0,0,462.386,224.94Z" transform="translate(-444 -211)"/>
  </g>
</svg>
