<svg xmlns="http://www.w3.org/2000/svg" width="24" height="24" viewBox="0 0 24 24">
  <defs>
    <style>
      .cls-1 {
        fill: #7c7c7c;
        fill-rule: evenodd;
      }
    </style>
  </defs>
  <g id="icon_expand_filled">
    <path class="cls-1" d="M323.087,170.168a1.11,1.11,0,0,0,1.112-1.109v-4.8h4.818a1.109,1.109,0,1,0,0-2.217h-5.93a1.109,1.109,0,0,0-1.111,1.108v5.912A1.109,1.109,0,0,0,323.087,170.168Zm17.788,3.695a1.111,1.111,0,0,0-1.112,1.109v4.8h-4.817a1.109,1.109,0,1,0,0,2.217h5.929a1.11,1.11,0,0,0,1.112-1.108v-5.913A1.111,1.111,0,0,0,340.875,173.863Zm1.026-11.139a1.113,1.113,0,0,0-1.026-.685h-5.929a1.109,1.109,0,1,0,0,2.217h3.245l-4.525,4.512a1.11,1.11,0,0,0,1.572,1.568l4.525-4.513v3.236a1.112,1.112,0,0,0,2.224,0v-5.912A1.107,1.107,0,0,0,341.9,162.724ZM328.725,173.7l-4.526,4.514v-3.237a1.112,1.112,0,0,0-2.223,0v5.913a1.105,1.105,0,0,0,.085.423,1.113,1.113,0,0,0,1.026.685h5.93a1.109,1.109,0,1,0,0-2.217h-3.246l4.526-4.513A1.11,1.11,0,1,0,328.725,173.7Z" transform="translate(-320 -160)"/>
  </g>
</svg>
