<svg xmlns="http://www.w3.org/2000/svg" width="20" height="20" viewBox="0 0 20 20">
  <defs>
    <style>
      .cls-1 {
        fill: #3f5067;
        fill-rule: evenodd;
        opacity: 0.8;
      }
    </style>
  </defs>
  <g id="icon_eye">
    <path class="cls-1" d="M250.332,17c-3.444,0-6.563-2-9.27-5.931a1,1,0,0,1,0-1.138C243.77,6,246.889,4,250.332,4s6.561,2,9.27,5.931a1,1,0,0,1,0,1.138C256.894,15,253.775,17,250.332,17ZM243.1,10.5c2.207,2.987,4.636,4.5,7.229,4.5,2.63,0,5-1.474,7.229-4.5-2.229-3.026-4.6-4.5-7.229-4.5C247.74,6,245.31,7.513,243.1,10.5Zm7.229,2.65a2.65,2.65,0,1,1,2.635-2.65A2.646,2.646,0,0,1,250.332,13.15Zm0-3.5a0.85,0.85,0,1,0,.845.85A0.849,0.849,0,0,0,250.332,9.65Z" transform="translate(-240)"/>
  </g>
</svg>
