<svg xmlns="http://www.w3.org/2000/svg" width="24" height="24" viewBox="0 0 24 24">
  <defs>
    <style>
      .cls-1 {
        fill: #202020;
        fill-rule: evenodd;
      }
    </style>
  </defs>
  <g id="expand_icon">
    <path class="cls-1" d="M21.7,18.892H12.852a0.769,0.769,0,0,1,0-1.537h8.337a0.256,0.256,0,0,0,.255-0.255V2.8a0.256,0.256,0,0,0-.255-0.255H6.894a0.256,0.256,0,0,0-.255.255v8.278a0.767,0.767,0,0,1-1.533,0V2.292A1.278,1.278,0,0,1,6.382,1.016H21.7a1.278,1.278,0,0,1,1.277,1.277V17.616A1.278,1.278,0,0,1,21.7,18.892ZM8.9,22.973H1.781A0.768,0.768,0,0,1,1.016,22.2l0-7.111a0.768,0.768,0,0,1,.764-0.769H8.9a0.77,0.77,0,0,1,.769.769V22.2A0.77,0.77,0,0,1,8.9,22.973ZM2.55,21.44H8.131V15.859H2.55V21.44ZM11.963,12.8a0.766,0.766,0,0,1-.543-1.309l4.333-4.33H13.033a0.769,0.769,0,0,1,0-1.538h4.572a0.77,0.77,0,0,1,.769.769v4.568a0.769,0.769,0,0,1-1.538,0V8.237l-4.33,4.333A0.763,0.763,0,0,1,11.963,12.8Z"/>
  </g>
</svg>
