<svg xmlns="http://www.w3.org/2000/svg" width="24" height="24" viewBox="0 0 24 24">
  <defs>
    <style>
      .cls-1 {
        fill: #202020;
        fill-rule: evenodd;
      }
    </style>
  </defs>
  <g id="collapse_icon">
    <path class="cls-1" d="M145.641,18.892H136.8a0.769,0.769,0,1,1,0-1.537h8.336a0.256,0.256,0,0,0,.256-0.255V2.8a0.256,0.256,0,0,0-.256-0.255H130.838a0.255,0.255,0,0,0-.255.255v8.278a0.767,0.767,0,0,1-1.534,0V2.292a1.278,1.278,0,0,1,1.277-1.277h15.315a1.277,1.277,0,0,1,1.276,1.277V17.616A1.277,1.277,0,0,1,145.641,18.892Zm-12.8,4.081h-7.114a0.768,0.768,0,0,1-.765-0.769l0-7.111a0.768,0.768,0,0,1,.765-0.769h7.11a0.77,0.77,0,0,1,.769.769V22.2A0.77,0.77,0,0,1,132.839,22.973Zm-6.345-1.533h5.581V15.859h-5.581V21.44ZM140.478,12.8h-4.571a0.77,0.77,0,0,1-.769-0.769V7.459a0.769,0.769,0,0,1,1.537,0v2.719l4.33-4.333a0.79,0.79,0,0,1,1.088,0,0.768,0.768,0,0,1,0,1.084l-4.334,4.329h2.719A0.769,0.769,0,1,1,140.478,12.8Z" transform="translate(-124)"/>
  </g>
</svg>
