<svg xmlns="http://www.w3.org/2000/svg" width="24" height="24" viewBox="0 0 24 24">
  <defs>
    <style>
      .cls-1 {
        fill: #7c7c7c;
        fill-rule: evenodd;
      }
    </style>
  </defs>
  <g id="icon_log">
    <path class="cls-1" d="M339.974,220.038H338.3v-2.281a1.006,1.006,0,0,0-.312-0.729l-3.958-3.758a0.983,0.983,0,0,0-.675-0.27h-9.43a0.994,0.994,0,0,0-.987,1v18a0.994,0.994,0,0,0,.987,1h13.388a0.994,0.994,0,0,0,.987-1v-1.81h1.675a0.994,0.994,0,0,0,.987-1v-8.152A0.994,0.994,0,0,0,339.974,220.038Zm-1.646,8.485H326.806a0.994,0.994,0,0,1-.988-1v-4.818a0.993,0.993,0,0,1,.988-1h11.522a0.993,0.993,0,0,1,.987,1v4.818A0.994,0.994,0,0,1,338.328,228.523Zm-8.02-2.471h-1.747v-2.879h-0.667v3.471h2.414v-0.592Zm0.6,0.071a1.67,1.67,0,0,0,.527.4,1.531,1.531,0,0,0,.683.149,1.57,1.57,0,0,0,.671-0.144,1.673,1.673,0,0,0,.531-0.386,1.8,1.8,0,0,0,.353-1.865,1.884,1.884,0,0,0-.338-0.567,1.714,1.714,0,0,0-.524-0.4,1.5,1.5,0,0,0-.679-0.154,1.57,1.57,0,0,0-.671.145,1.668,1.668,0,0,0-.533.388,1.856,1.856,0,0,0-.353.562,1.772,1.772,0,0,0-.128.665,1.831,1.831,0,0,0,.121.651A1.8,1.8,0,0,0,330.9,226.123Zm0.281-1.637a1.169,1.169,0,0,1,.19-0.372,0.969,0.969,0,0,1,.314-0.264,0.969,0.969,0,0,1,.847,0,0.945,0.945,0,0,1,.314.257,1.169,1.169,0,0,1,.2.371,1.357,1.357,0,0,1,.07.435,1.414,1.414,0,0,1-.065.423,1.186,1.186,0,0,1-.193.374,0.985,0.985,0,0,1-.314.267,0.962,0.962,0,0,1-.85,0,0.987,0.987,0,0,1-.314-0.259,1.168,1.168,0,0,1-.195-0.372,1.413,1.413,0,0,1-.068-0.435A1.383,1.383,0,0,1,331.184,224.486Zm3.488,1.669a1.593,1.593,0,0,0,.517.376,1.484,1.484,0,0,0,.634.137,1.3,1.3,0,0,0,.956-0.415v0.391h0.551v-1.785h-1.241v0.494h0.69V225.6a1.163,1.163,0,0,1-.9.474,0.9,0.9,0,0,1-.4-0.091,0.991,0.991,0,0,1-.321-0.246,1.17,1.17,0,0,1-.212-0.37,1.313,1.313,0,0,1-.078-0.457,1.414,1.414,0,0,1,.07-0.444,1.216,1.216,0,0,1,.2-0.372,0.944,0.944,0,0,1,.309-0.254,0.862,0.862,0,0,1,.4-0.093,0.994,0.994,0,0,1,.509.137,0.929,0.929,0,0,1,.365.4l0.5-.372a1.325,1.325,0,0,0-.519-0.552,1.589,1.589,0,0,0-.828-0.206,1.572,1.572,0,0,0-.662.14,1.689,1.689,0,0,0-.528.376,1.755,1.755,0,0,0-.353.553,1.774,1.774,0,0,0-.128.672,1.9,1.9,0,0,0,.128.7A1.808,1.808,0,0,0,334.672,226.155Z" transform="translate(-320 -211)"/>
  </g>
</svg>
