<svg xmlns="http://www.w3.org/2000/svg" width="20" height="20" viewBox="0 0 20 20">
  <defs>
    <style>
      .cls-1 {
        fill: #3f5067;
        fill-rule: evenodd;
        opacity: 0.8;
      }
    </style>
  </defs>
  <g id="icon_eye_closed">
    <path class="cls-1" d="M370.33,16.8c-3.443,0-6.562-1.975-9.269-5.872a0.985,0.985,0,0,1,0-1.127,15.555,15.555,0,0,1,4.483-4.478,0.991,0.991,0,1,1,1.043,1.685,12.964,12.964,0,0,0-3.486,3.356c2.208,2.958,4.637,4.456,7.229,4.456a7.021,7.021,0,0,0,3.562-.992,1,1,0,0,1,1.361.357,0.99,0.99,0,0,1-.359,1.355A9,9,0,0,1,370.33,16.8Zm6.1-2.665a0.99,0.99,0,0,1-.683-1.709,15.833,15.833,0,0,0,1.814-2.062c-2.23-3-4.6-4.455-7.23-4.455a6.776,6.776,0,0,0-1.55.178,0.99,0.99,0,1,1-.457-1.927,8.766,8.766,0,0,1,2.007-.232c3.444,0,6.562,1.976,9.27,5.873a0.985,0.985,0,0,1,0,1.127,18.619,18.619,0,0,1-2.489,2.937A0.992,0.992,0,0,1,376.429,14.138Zm0.365,3.725a1,1,0,0,1-.7-0.292L363.162,4.629a0.992,0.992,0,0,1,1.41-1.4L377.5,16.175A0.99,0.99,0,0,1,376.794,17.863Z" transform="translate(-360)"/>
  </g>
</svg>
