<svg xmlns="http://www.w3.org/2000/svg" width="28" height="20" viewBox="0 0 28 20">
  <defs>
    <style>
      .cls-1 {
        fill: #7e7e7e;
        fill-rule: evenodd;
      }
    </style>
  </defs>
  <g id="ifelse_icon">
    <path class="cls-1" d="M81.675,19a0.743,0.743,0,0,1-.527-0.22l-5.074-5.125c-0.022-.024-0.043-0.049-0.063-0.073h-3.3a0.754,0.754,0,0,1,0-1.508h3.876l4.347-4.391V6.13H78.088a1.955,1.955,0,0,1-1.942-1.962V2.96A1.955,1.955,0,0,1,78.088,1h7.174A1.955,1.955,0,0,1,87.2,2.96V4.168A1.955,1.955,0,0,1,85.262,6.13H82.421V7.688l4.346,4.391h4.474a0.752,0.752,0,0,1,.747.754v3.624a0.747,0.747,0,1,1-1.493,0v-2.87H87.339q-0.03.038-.064,0.073L82.2,18.785A0.743,0.743,0,0,1,81.675,19Zm-4.018-5.879,4.018,4.06,4.019-4.06-4.019-4.06Zm0.432-10.62a0.452,0.452,0,0,0-.45.455V4.168a0.452,0.452,0,0,0,.45.455h7.174a0.452,0.452,0,0,0,.45-0.455V2.96a0.452,0.452,0,0,0-.45-0.455H78.088Z" transform="translate(-68)"/>
  </g>
</svg>
