<?xml version="1.0" encoding="utf-8"?>
<!-- Generator: Adobe Illustrator 27.0.0, SVG Export Plug-In . SVG Version: 6.00 Build 0)  -->
<svg version="1.1" id="Layer_1" xmlns="http://www.w3.org/2000/svg" xmlns:xlink="http://www.w3.org/1999/xlink" x="0px" y="0px"
	 viewBox="0 0 19 21" style="enable-background:new 0 0 19 21;" xml:space="preserve">
<style type="text/css">
	.st0{fill:none;stroke:#33363F;stroke-width:1.3;stroke-linecap:round;stroke-linejoin:round;}
	
		.st1{opacity:0.5;fill:none;stroke:#1C274C;stroke-width:1.3;stroke-linecap:round;stroke-linejoin:round;enable-background:new    ;}
	.st2{fill-rule:evenodd;clip-rule:evenodd;fill:#33363F;}
</style>
<path class="st0" d="M17.7,6.8V11c0,4.2-1.7,5.8-5.8,5.8H9.5 M3.7,11V6.9C3.7,2.7,5.3,1,9.5,1h2.4"/>
<path class="st0" d="M17.7,6.6h-2.8c-2.1,0-2.8-0.7-2.8-2.8V1L17.7,6.6z"/>
<path class="st1" d="M10,8v5 M12,9.9L10,8 M8,9.9L10,8"/>
<path class="st2" d="M4,13.6c-0.2,0-0.4,0.1-0.5,0.4l-0.6,1.7l-1.7,0.6c-0.2,0.1-0.4,0.3-0.4,0.5s0.1,0.4,0.4,0.5l1.7,0.6l0.6,1.7
	C3.6,19.9,3.8,20,4,20c0.2,0,0.4-0.1,0.5-0.4l0.6-1.7l1.7-0.6c0.2-0.1,0.4-0.3,0.4-0.5S7,16.4,6.8,16.3l-1.7-0.6L4.5,14
	C4.4,13.8,4.2,13.6,4,13.6z"/>
</svg>
