<?xml version="1.0" encoding="utf-8"?>
<!-- Generator: Adobe Illustrator 27.0.0, SVG Export Plug-In . SVG Version: 6.00 Build 0)  -->
<svg version="1.1" id="Layer_1" xmlns="http://www.w3.org/2000/svg" xmlns:xlink="http://www.w3.org/1999/xlink" x="0px" y="0px"
	 viewBox="0 0 20 20" style="enable-background:new 0 0 20 20;" xml:space="preserve">
<style type="text/css">
	.st0{fill:#7B7B7B;}
</style>
<path class="st0" d="M8.3,18.9c3.2,0.2,8.2-0.1,8.3-1.6c0,0-0.2,0.6-2.7,1c-1.4,0.2-2.9,0.4-4.5,0.4c-1.3,0-2.6-0.1-3.8-0.3l0.1,0
	C5.7,18.5,6.2,18.8,8.3,18.9L8.3,18.9z M11.8,1c0,0,1.9,1.9-1.8,4.8c-2.9,2.3-0.7,3.6,0,5.1C8.3,9.3,7.1,8,7.9,6.7
	C9.1,4.9,12.6,4,11.8,1L11.8,1z M13.8,14.2c3.4-1.8,1.8-3.4,0.7-3.2c-0.1,0-0.3,0.1-0.4,0.1h0c0.1-0.1,0.2-0.2,0.3-0.2l0,0
	C16.6,10.1,18.3,13.1,13.8,14.2C13.8,14.3,13.8,14.2,13.8,14.2L13.8,14.2L13.8,14.2z M8,10.9c0,0-3.3,0.8-1.2,1.1
	C7.4,12,8,12,8.7,12c0.9,0,1.7,0,2.5-0.1h-0.1c1.4-0.1,2.7-0.4,2.7-0.4c-0.3,0.1-0.6,0.3-0.9,0.4h0c-3.3,0.9-9.7,0.4-7.9-0.4
	C5.9,11.2,6.9,10.9,8,10.9L8,10.9L8,10.9z M15.5,16.4c0,0,0.5,0.4-0.6,0.7c-2,0.6-8.5,0.8-10.2,0c-0.6-0.3,0.6-0.7,0.9-0.8
	c0.2,0,0.4-0.1,0.6-0.1c0,0,0,0,0,0l0,0c-0.7-0.5-4.6,1-2,1.4C11.5,18.9,17.4,17.2,15.5,16.4C15.5,16.4,15.5,16.4,15.5,16.4z
	 M10.8,9.6c0.2,0.2,0.3,0.5,0.3,0.8c0,0.4-0.2,0.8-0.5,1.1l0,0c0,0,2.2-1.1,1.2-2.6c-1-1.3-1.7-2,2.3-4.3C14.1,4.7,7.9,6.2,10.8,9.6
	z M7.2,13c0,0-0.8,0.6,0.4,0.7c0.5,0.1,1.1,0.1,1.7,0.1c1.1,0,2.2-0.1,3.2-0.4l-0.1,0c0.2,0.2,0.5,0.4,0.7,0.4h0
	C8.9,15.1,4.2,14,7.2,13L7.2,13L7.2,13z M7.6,14.9c0,0-0.7,0.4,0.5,0.5c0.4,0.1,0.9,0.1,1.4,0.1c0.8,0,1.6-0.1,2.4-0.3h-0.1
	c0.3,0.2,0.6,0.4,1,0.5l0,0C9.3,17.3,4.9,15.7,7.6,14.9L7.6,14.9L7.6,14.9z"/>
</svg>
