<svg width="20" height="20" viewBox="0 0 20 20" fill="none" xmlns="http://www.w3.org/2000/svg">
<path d="M14.5001 18.4V15.8C14.5001 13.9144 14.5001 12.9716 13.9143 12.3858C13.3285 11.8 12.3857 11.8 10.5001 11.8H8.6001C6.71448 11.8 5.77167 11.8 5.18588 12.3858C4.6001 12.9716 4.6001 13.9144 4.6001 15.8V18.4" stroke="white" stroke-width="1.5"/>
<path d="M4.6001 5.5H10.9001" stroke="white" stroke-width="1.5" stroke-linecap="round"/>
<path d="M1 7C1 4.17157 1 2.75736 1.87868 1.87868C2.75736 1 4.17157 1 7 1H14.1716C14.5803 1 14.7847 1 14.9685 1.07612C15.1522 1.15224 15.2968 1.29676 15.5858 1.58579L18.4142 4.41421C18.7032 4.70324 18.8478 4.84776 18.9239 5.03153C19 5.2153 19 5.41968 19 5.82843V13C19 15.8284 19 17.2426 18.1213 18.1213C17.2426 19 15.8284 19 13 19H7C4.17157 19 2.75736 19 1.87868 18.1213C1 17.2426 1 15.8284 1 13V7Z" stroke="white" stroke-width="1.5"/>
</svg>
