<svg width="19" height="18" viewBox="0 0 19 18" fill="none" xmlns="http://www.w3.org/2000/svg">
<path d="M2.375 6.75V5.25C2.375 3.59315 3.71815 2.25 5.375 2.25H13.625C15.2819 2.25 16.625 3.59315 16.625 5.25V12.75C16.625 14.4069 15.2819 15.75 13.625 15.75H11.875" stroke="#222222" stroke-width="1.2" stroke-linecap="round"/>
<path d="M9.51953 8.875L9.51953 9.475L8.91953 9.475L8.91953 8.875L9.51953 8.875ZM14.2527 3.56443C14.4933 3.33653 14.873 3.3468 15.1009 3.58736C15.3288 3.82792 15.3186 4.20768 15.078 4.43557L14.2527 3.56443ZM10.1195 4.375L10.1195 8.875L8.91953 8.875L8.91953 4.375L10.1195 4.375ZM9.51953 8.275L14.2695 8.275L14.2695 9.475L9.51953 9.475L9.51953 8.275ZM9.10688 8.43943L14.2527 3.56443L15.078 4.43557L9.93218 9.31057L9.10688 8.43943Z" fill="#222222"/>
<rect x="2.375" y="10.5" width="5.54167" height="5.25" rx="2" stroke="#222222" stroke-width="1.2" stroke-linecap="round"/>
</svg>
