<svg xmlns="http://www.w3.org/2000/svg">
                                    <defs>
                                        <style>
                                            .cls-1 {
                                                fill: #999;
                                                fill-rule: evenodd;
                                            }
                                        </style>
                                    </defs>
                                    <g id="icn_logs">
                                        <path id="log" class="cls-1" d="M842.434,47.41v1.042h0a1.882,1.882,0,0,1-1.878,1.879h-15.79a1.883,1.883,0,0,1-1.879-1.879V24.975a1.879,1.879,0,0,1,1.879-1.879H835.9v2.726a3.567,3.567,0,0,0,3.56,3.561h2.976v7.912l1.681-.053V28.87a1.673,1.673,0,0,0-.13-0.632,1.615,1.615,0,0,0-.365-0.531l-6.076-5.846a1.6,1.6,0,0,0-.512-0.334h0a1.6,1.6,0,0,0-.6-0.12H824.766a3.558,3.558,0,0,0-3.56,3.561V48.446a3.558,3.558,0,0,0,3.56,3.561h15.79a3.557,3.557,0,0,0,3.559-3.561V47.4m-3.47-13.9h0a0.844,0.844,0,0,0-.841-0.841H825.666a0.844,0.844,0,0,0-.841.841h0a0.844,0.844,0,0,0,.841.841H839.8A0.849,0.849,0,0,0,840.645,33.493Zm-6.321-4.758a0.844,0.844,0,0,0-.841-0.841h-7.889a0.841,0.841,0,0,0,0,1.683h7.884A0.845,0.845,0,0,0,834.324,28.735Zm12.082,9.814H831.822a1.8,1.8,0,0,0-1.8,1.8v4.144a1.8,1.8,0,0,0,1.8,1.8h14.584a1.8,1.8,0,0,0,1.8-1.8V40.349A1.8,1.8,0,0,0,846.406,38.549ZM835.53,44.619h-2.81V40.158H833.8v3.523h1.727v0.939Zm4.907-1.282a2.2,2.2,0,0,1-.506.75,2.26,2.26,0,0,1-.772.482,2.713,2.713,0,0,1-.971.17,2.684,2.684,0,0,1-.967-0.17,2.252,2.252,0,0,1-.768-0.482,2.21,2.21,0,0,1-.508-0.75,2.663,2.663,0,0,1,0-1.935,2.132,2.132,0,0,1,.508-0.734,2.257,2.257,0,0,1,.768-0.466,2.783,2.783,0,0,1,.967-0.164,2.814,2.814,0,0,1,.971.164,2.266,2.266,0,0,1,.772.466,2.127,2.127,0,0,1,.506.734A2.649,2.649,0,0,1,840.437,43.337Zm4.984,1.012a3.451,3.451,0,0,1-.765.277,4.025,4.025,0,0,1-.955.108,2.777,2.777,0,0,1-.986-0.17,2.276,2.276,0,0,1-.774-0.479,2.159,2.159,0,0,1-.508-0.74,2.62,2.62,0,0,1,0-1.931,2.171,2.171,0,0,1,.513-0.74,2.276,2.276,0,0,1,.769-0.47,2.717,2.717,0,0,1,.951-0.164,2.933,2.933,0,0,1,.983.16,2.019,2.019,0,0,1,.737.432l-0.679.775a1.2,1.2,0,0,0-.416-0.3,1.411,1.411,0,0,0-.587-0.117,1.3,1.3,0,0,0-.523.1,1.28,1.28,0,0,0-.416.29,1.322,1.322,0,0,0-.274.442,1.569,1.569,0,0,0-.1.557,1.74,1.74,0,0,0,.089.567,1.221,1.221,0,0,0,.261.445,1.185,1.185,0,0,0,.429.289,1.524,1.524,0,0,0,.582.1,2.114,2.114,0,0,0,.359-0.029,1.3,1.3,0,0,0,.315-0.091V42.855h-0.851v-0.87h1.84v2.363ZM839.112,41.4a1.224,1.224,0,0,0-.4-0.283,1.275,1.275,0,0,0-.52-0.1,1.223,1.223,0,0,0-1.181.819,1.581,1.581,0,0,0-.091.542,1.614,1.614,0,0,0,.094.557,1.316,1.316,0,0,0,.262.438,1.159,1.159,0,0,0,.4.287,1.328,1.328,0,0,0,1.033,0,1.21,1.21,0,0,0,.4-0.287,1.29,1.29,0,0,0,.265-0.438,1.591,1.591,0,0,0,.094-0.557,1.536,1.536,0,0,0-.094-0.542A1.321,1.321,0,0,0,839.112,41.4Z" transform="translate(-818 -21)"></path>
                                    </g>
                                </svg>