<svg width="16" height="18" viewBox="0 0 16 18" fill="none" xmlns="http://www.w3.org/2000/svg">
<path d="M1 4.96143H14.8462" stroke="#33363F" stroke-width="1.2" stroke-linecap="round" stroke-linejoin="round"/>
<path d="M2.73047 4.96143H13.1151V15.346C13.1151 15.6521 12.9935 15.9455 12.7771 16.1619C12.5607 16.3783 12.2673 16.4999 11.9612 16.4999H3.88431C3.5783 16.4999 3.28481 16.3783 3.06842 16.1619C2.85203 15.9455 2.73047 15.6521 2.73047 15.346V4.96143Z" stroke="#33363F" stroke-width="1.2" stroke-linecap="round" stroke-linejoin="round"/>
<path d="M5.03906 4.96154V4.38462C5.03906 3.61957 5.34298 2.88585 5.88395 2.34488C6.42492 1.80391 7.15863 1.5 7.92368 1.5C8.68873 1.5 9.42244 1.80391 9.96341 2.34488C10.5044 2.88585 10.8083 3.61957 10.8083 4.38462V4.96154" stroke="#33363F" stroke-width="1.2" stroke-linecap="round" stroke-linejoin="round"/>
<path d="M6.19092 7.26929V13.6154" stroke="#33363F" stroke-width="1.2" stroke-linecap="round" stroke-linejoin="round"/>
<path d="M9.6543 7.26929V13.6154" stroke="#33363F" stroke-width="1.2" stroke-linecap="round" stroke-linejoin="round"/>
</svg>
