<svg xmlns="http://www.w3.org/2000/svg" width="28" height="20" viewBox="0 0 28 20">
  <defs>
    <style>
      .cls-1 {
        fill: #7e7e7e;
        fill-rule: evenodd;
      }
    </style>
  </defs>
  <g id="txt_icon">
    <path class="cls-1" d="M157.781,5.948l-4.338-4.581a0.843,0.843,0,0,0-.577-0.287h-9.2a1.661,1.661,0,0,0-1.592,1.666V8.289a0.8,0.8,0,0,0,1.592,0V3.537a0.869,0.869,0,0,1,.8-0.874h7.165v3.25a1.52,1.52,0,0,0,1.592,1.5h3.184V8.289a0.8,0.8,0,0,0,1.592,0v-1.8a0.788,0.788,0,0,0-.219-0.546h0Zm-6.522,4.717a0.713,0.713,0,0,0-.637.392l-0.6,1.192-0.6-1.192a0.711,0.711,0,0,0-1.273.634l1.076,2.142-1.076,2.143a0.711,0.711,0,0,0,1.273.633l0.6-1.193,0.6,1.193a0.711,0.711,0,0,0,1.274-.633l-1.077-2.143L151.9,11.69a0.709,0.709,0,0,0-.637-1.026h0Zm5.945-.082H154.02a0.828,0.828,0,0,0-.794.823,0.776,0.776,0,0,0,.794.761h0.8v4.042a0.8,0.8,0,0,0,1.592,0V12.166h0.8a0.76,0.76,0,0,0,.8-0.751V11.395a0.811,0.811,0,0,0-.8-0.812h0Zm-3.98.833s0-.007,0-0.01,0-.007,0-0.01v0.021Zm-11.145,0s0-.007,0-0.01,0-.007,0-0.01v0.021Zm4.777-.021v0.021a0.76,0.76,0,0,1-.8.751h-0.8v4.042a0.8,0.8,0,0,1-1.592,0V12.166h-0.8a0.775,0.775,0,0,1-.793-0.761,0.828,0.828,0,0,1,.793-0.823h3.184a0.811,0.811,0,0,1,.8.812h0Z" transform="translate(-136)"/>
  </g>
</svg>
