<svg width="16" height="16" viewBox="0 0 16 16" fill="none" xmlns="http://www.w3.org/2000/svg">
<path d="M7.99951 5.84198V9.07423" stroke="#E58E69" stroke-width="1.5" stroke-linecap="round" stroke-linejoin="round"/>
<path d="M7.99989 12.6656C8.29741 12.6656 8.5386 12.4245 8.5386 12.1269C8.5386 11.8294 8.29741 11.5882 7.99989 11.5882C7.70237 11.5882 7.46118 11.8294 7.46118 12.1269C7.46118 12.4245 7.70237 12.6656 7.99989 12.6656Z" stroke="#E58E69" stroke-width="1.5" stroke-linecap="round" stroke-linejoin="round"/>
<path d="M8.95885 1.58616C8.86844 1.40967 8.73107 1.26157 8.56188 1.15815C8.39269 1.05472 8.19824 1 7.99995 1C7.80165 1 7.60721 1.05472 7.43802 1.15815C7.26883 1.26157 7.13146 1.40967 7.04105 1.58616L1.11526 13.4377C1.03261 13.6018 0.993257 13.7842 1.00094 13.9677C1.00863 14.1512 1.0631 14.3297 1.15917 14.4862C1.25525 14.6427 1.38974 14.7721 1.54989 14.862C1.71003 14.9519 1.8905 14.9994 2.07416 15H13.9257C14.1094 14.9994 14.2899 14.9519 14.45 14.862C14.6102 14.7721 14.7446 14.6427 14.8407 14.4862C14.9368 14.3297 14.9913 14.1512 14.999 13.9677C15.0066 13.7842 14.9673 13.6018 14.8846 13.4377L8.95885 1.58616Z" stroke="#E58E69" stroke-width="1.5" stroke-linecap="round" stroke-linejoin="round"/>
</svg>
