<svg xmlns="http://www.w3.org/2000/svg" viewBox="0 0 55.57 46.14"><defs><style>.cls-1{fill:#1d1d1b;}</style></defs><g id="Layer_2" data-name="Layer 2"><g id="Layer_1-2" data-name="Layer 1"><path class="cls-1" d="M27.78,24.84,16.72,17.92,27.78,11l11.07,6.92Zm-9.49-6.92,9.49,5.92,9.5-5.92L27.78,12Z"/><path class="cls-1" d="M55.57,34.84H34.2V27.38H55.57ZM35,34H54.73V28.22H35Z"/><path class="cls-1" d="M21.36,45.1H0V37.65H21.36ZM.84,44.27H20.53V38.48H.84Z"/><polygon class="cls-1" points="11.1 37.65 10.26 37.65 10.26 17.59 17.52 17.59 17.52 18.42 11.1 18.42 11.1 37.65"/><polygon class="cls-1" points="45.3 27.58 44.47 27.58 44.47 18.42 38.05 18.42 38.05 17.59 45.3 17.59 45.3 27.58"/><rect class="cls-1" x="27.38" y="4.11" width="0.84" height="7.39"/><rect class="cls-1" x="44.47" y="34.4" width="0.84" height="7.72"/><circle class="cls-1" cx="27.95" cy="2.34" r="2.34"/><circle class="cls-1" cx="45" cy="43.8" r="2.34"/></g></g></svg>