<svg width="42" height="47" viewBox="0 0 42 47" fill="none" xmlns="http://www.w3.org/2000/svg">
<g clip-path="url(#clip0_251_2402)">
<path d="M1.46253 40.0996H40.5375C41.3443 40.0996 42 39.4468 42 38.6398V30.3133C42 29.508 41.3459 28.8535 40.5375 28.8535H1.46253C0.655731 28.8535 0 29.5064 0 30.3133V38.6398C0 39.4451 0.654071 40.0996 1.46253 40.0996ZM27.5706 32.7127H27.7764C28.7526 32.7127 29.5461 33.5031 29.5461 34.4791C29.5461 35.4534 28.7542 36.2454 27.7764 36.2454H27.5706C26.5928 36.2454 25.8009 35.455 25.8009 34.4791C25.8009 33.5031 26.5928 32.7127 27.5706 32.7127ZM20.8987 32.7127H21.1046C22.0807 32.7127 22.8742 33.5031 22.8742 34.4791C22.8742 35.4534 22.0824 36.2454 21.1046 36.2454H20.8987C19.9209 36.2454 19.1291 35.455 19.1291 34.4791C19.1291 33.5031 19.9209 32.7127 20.8987 32.7127ZM14.2269 32.7127H14.4327C15.4105 32.7127 16.2024 33.5031 16.2024 34.4791C16.2024 35.4534 15.4105 36.2454 14.4327 36.2454H14.2269C13.2508 36.2454 12.4572 35.455 12.4572 34.4791C12.4572 33.5031 13.2491 32.7127 14.2269 32.7127Z" fill="#5B656D"/>
<path d="M1.46253 25.6704H40.5375C41.3443 25.6704 42 25.0175 42 24.2106V15.8874C42 15.0821 41.3459 14.4276 40.5375 14.4276H1.46253C0.655731 14.4276 0 15.0805 0 15.8874V24.2106C0 25.0159 0.654071 25.6704 1.46253 25.6704ZM27.5706 18.2835H27.7764C28.7526 18.2835 29.5461 19.0739 29.5461 20.0498C29.5461 21.0242 28.7542 21.8162 27.7764 21.8162H27.5706C26.5928 21.8162 25.8009 21.0258 25.8009 20.0498C25.8009 19.0739 26.5928 18.2835 27.5706 18.2835ZM20.8987 18.2835H21.1046C22.0807 18.2835 22.8742 19.0739 22.8742 20.0498C22.8742 21.0242 22.0824 21.8162 21.1046 21.8162H20.8987C19.9209 21.8162 19.1291 21.0258 19.1291 20.0498C19.1291 19.0739 19.9209 18.2835 20.8987 18.2835ZM14.2269 18.2835H14.4327C15.4105 18.2835 16.2024 19.0739 16.2024 20.0498C16.2024 21.0242 15.4105 21.8162 14.4327 21.8162H14.2269C13.2508 21.8162 12.4572 21.0258 12.4572 20.0498C12.4572 19.0739 13.2491 18.2835 14.2269 18.2835Z" fill="#33363F"/>
<path d="M0 1.45982V9.78628C0 10.5916 0.654071 11.2461 1.46253 11.2461H40.5375C41.3443 11.2461 42 10.5932 42 9.78628V1.45982C42 0.654518 41.3459 0 40.5375 0H1.46253C0.654071 0 0 0.652861 0 1.45982ZM14.4294 7.38694H14.2236C13.2474 7.38694 12.4539 6.59655 12.4539 5.62057C12.4539 4.64459 13.2458 3.8542 14.2236 3.8542H14.4294C15.4072 3.8542 16.1991 4.64459 16.1991 5.62057C16.1991 6.59489 15.4072 7.38694 14.4294 7.38694ZM21.1013 7.38694H20.8954C19.9176 7.38694 19.1258 6.59655 19.1258 5.62057C19.1258 4.64459 19.9176 3.8542 20.8954 3.8542H21.1013C22.0774 3.8542 22.8709 4.64459 22.8709 5.62057C22.8709 6.59489 22.0791 7.38694 21.1013 7.38694ZM27.7731 7.38694H27.5673C26.5895 7.38694 25.7976 6.59655 25.7976 5.62057C25.7976 4.64459 26.5895 3.8542 27.5673 3.8542H27.7731C28.7493 3.8542 29.5428 4.64459 29.5428 5.62057C29.5428 6.59489 28.7509 7.38694 27.7731 7.38694Z" fill="#5B656D"/>
<path d="M33.8938 44.7723H8.10449V46.4211H33.8938V44.7723Z" fill="#5B656D"/>
<path d="M21.8268 39.0922H20.175V46.4211H21.8268V39.0922Z" fill="#5B656D"/>
</g>
<defs>
<clipPath id="clip0_251_2402">
<rect width="42" height="46.4211" fill="white"/>
</clipPath>
</defs>
</svg>
