<svg width="46" height="40" viewBox="0 0 46 40" fill="none" xmlns="http://www.w3.org/2000/svg">
<g clip-path="url(#clip0_251_2431)">
<path d="M17.9288 0.261415C19.1486 0.869825 19.6433 2.35246 19.0348 3.57223L13.0157 15.6223C12.4058 16.8421 10.9247 17.3368 9.70491 16.7284C8.48514 16.1199 7.99043 14.6373 8.59884 13.4175L14.6165 1.366C15.2249 0.14623 16.7075 -0.348472 17.9273 0.261415" fill="#5B656D"/>
<path d="M27.2249 0.261415C26.0052 0.869825 25.5105 2.35246 26.1189 3.57223L32.138 15.6223C32.7479 16.8421 34.229 17.3368 35.4488 16.7284C36.6686 16.1199 37.1633 14.6373 36.5549 13.4175L30.5372 1.366C29.9288 0.14623 28.4462 -0.348472 27.2264 0.261415" fill="#5B656D"/>
<path d="M42.534 13.7483H2.61971C1.17252 13.7483 0 14.9208 0 16.368C0 17.8152 1.13117 18.9419 2.54144 18.9833L4.47742 36.0631C4.73142 38.3047 6.62753 39.9985 8.88397 39.9985H36.2698C38.5262 39.9985 40.4223 38.3047 40.6763 36.0631L42.6123 18.9833C44.0226 18.9419 45.1538 17.7886 45.1538 16.368C45.1538 14.9474 43.9812 13.7483 42.534 13.7483Z" fill="#33363F"/>
<rect x="2.96289" y="22.963" width="40" height="2.22222" fill="#F6F6F9"/>
<rect x="2.96289" y="30.3704" width="40" height="2.22222" fill="#F6F6F9"/>
</g>
<defs>
<clipPath id="clip0_251_2431">
<rect width="45.1538" height="40" fill="white"/>
</clipPath>
</defs>
</svg>
