<svg width="42" height="43" viewBox="0 0 42 43" fill="none" xmlns="http://www.w3.org/2000/svg">
<g clip-path="url(#clip0_251_2439)">
<path d="M25.3389 31.7504L25.811 31.7468C27.9469 31.7468 29.0679 32.6327 30.4523 34.7297L31.1419 35.7941C31.6794 36.5897 32.0136 36.9221 32.4362 37.0972C33.1929 37.4084 33.8206 37.2563 36.1262 36.1459L36.8317 35.8029C38.2727 35.0957 39.2558 34.6908 40.368 34.4132C41.0717 34.2381 41.7842 34.6642 41.9593 35.3679C42.1343 36.0717 41.7082 36.7842 41.0045 36.9593C40.3132 37.1325 39.6519 37.3801 38.7855 37.7779L36.7575 38.7539C34.0133 40.0499 33.0833 40.2038 31.4354 39.5248C30.3409 39.0739 29.7203 38.4215 28.8097 37.03L28.4685 36.4978C27.4147 34.8375 26.8843 34.3725 25.811 34.3725L25.5334 34.3796C24.7749 34.4255 24.2851 34.7721 21.0159 37.1997C17.9676 39.4629 15.6425 40.5432 12.6845 40.5432C9.07925 40.5432 5.68269 39.8802 2.50537 38.5576L7.54983 37.3924C9.20125 37.7443 10.9128 37.9193 12.6862 37.9193C14.9441 37.9193 16.8166 37.0494 19.4528 35.0939L21.4826 33.5963C23.7069 31.9785 24.202 31.7787 25.3407 31.7539L25.3389 31.7504Z" fill="#33363F"/>
<path d="M30.8801 5.76329C33.3667 8.25009 33.3667 12.2836 30.8801 14.7704L29.3409 16.3097C31.0527 18.3925 30.9912 20.6 29.3995 22.1963L24.9397 26.6563C24.5043 27.0918 23.7985 27.0918 23.363 26.6563C22.9276 26.2208 22.9276 25.515 23.363 25.0795L27.8198 20.6225C28.5406 19.9002 28.6247 19.0022 27.7597 17.8894L12.0154 33.6346C11.5725 34.0776 11.0139 34.387 10.4027 34.5281L1.36606 36.614C0.564203 36.7987 -0.156567 36.0794 0.0296321 35.2775L2.11536 26.2403C2.25651 25.6291 2.56584 25.0705 3.00881 24.6275L21.8734 5.76329C24.3601 3.27649 28.3934 3.27649 30.8801 5.76329Z" fill="#5B656D"/>
</g>
<defs>
<clipPath id="clip0_251_2439">
<rect width="42" height="42.1008" fill="white"/>
</clipPath>
</defs>
</svg>
