<svg width="46" height="46" viewBox="0 0 46 46" fill="none" xmlns="http://www.w3.org/2000/svg">
<g clip-path="url(#clip0_251_2477)">
<path d="M21.2972 0C21.2501 0 21.2014 0 21.1527 0C21.104 0 21.0553 0 21.0082 0C9.41275 0.0802707 0 9.62756 0 21.3536C0 33.0797 9.41274 42.6286 21.0098 42.7073C21.0569 42.7073 21.1056 42.7073 21.1543 42.7073C21.203 42.7073 21.2518 42.7073 21.2989 42.7073C23.5562 42.6925 25.7291 42.319 27.7673 41.6392C27.8111 41.6244 27.855 41.6097 27.8988 41.5966L27.2232 39.2655L27.2005 39.1819C27.1567 39.1967 27.1112 39.213 27.069 39.2261C25.5862 39.7291 24.0207 40.0469 22.3999 40.155C21.9891 40.1812 21.5733 40.1959 21.1543 40.1959C20.7353 40.1959 20.3196 40.1812 19.9087 40.155C18.1954 40.0387 16.5421 39.6897 14.9847 39.1377C12.094 38.1138 9.52643 36.3905 7.48343 34.1691C6.86468 33.4991 6.29628 32.7832 5.77984 32.0264C3.92685 29.3135 2.75919 26.088 2.5302 22.6085C2.50422 22.194 2.4896 21.7746 2.4896 21.352C2.4896 20.9293 2.5026 20.5116 2.5302 20.0955C2.75919 16.6144 3.92685 13.3905 5.78147 10.6776C6.2979 9.9208 6.86793 9.20491 7.48505 8.5349C9.52967 6.31517 12.0956 4.59181 14.9847 3.56631C16.5421 3.01425 18.1938 2.66531 19.9103 2.549C20.3212 2.52279 20.7369 2.50805 21.1559 2.50805C21.5749 2.50805 21.9907 2.52279 22.4016 2.549C24.1165 2.66531 25.7681 3.01425 27.3272 3.56795C30.2098 4.59017 32.7708 6.30698 34.8122 8.52016C35.4326 9.19181 36.0026 9.90933 36.5223 10.6645C38.3802 13.3806 39.5511 16.6095 39.7801 20.0939C39.806 20.51 39.8207 20.9277 39.8207 21.3504C39.8207 21.773 39.806 22.1924 39.7801 22.6068C39.7021 23.8011 39.5121 24.9674 39.2214 26.0912L39.8596 27.1561L40.5872 27.3346L41.6347 26.7088C42.0748 24.9953 42.3086 23.1999 42.3086 21.3487C42.3086 9.62756 32.8959 0.0802707 21.2972 0Z" fill="#5B656D"/>
<path d="M32.139 20.0972C32.0561 17.1779 31.6826 14.4323 31.0752 11.9636C30.8674 11.1249 30.6335 10.3189 30.3753 9.54893C29.5763 7.17358 28.5402 5.1406 27.3254 3.56959C25.6121 1.35477 23.5463 0.055698 21.2971 0C21.25 0 21.2013 0 21.1526 0C21.1038 0 21.0551 0 21.008 0C18.7604 0.0540598 16.6947 1.35313 14.9813 3.56795C13.7617 5.14551 12.7207 7.18832 11.9233 9.5735C11.6651 10.3434 11.4312 11.1511 11.2266 11.9882C10.6209 14.4504 10.2506 17.1861 10.1678 20.0955C10.1548 20.51 10.1499 20.9293 10.1499 21.352C10.1499 21.7746 10.1548 22.194 10.1678 22.6085C10.2506 25.5179 10.6209 28.2553 11.2266 30.7158C11.4312 31.5529 11.6651 32.3589 11.9233 33.1305C12.7207 35.5189 13.7633 37.5618 14.9829 39.1377C16.6963 41.3525 18.7604 42.6516 21.008 42.7056C21.0551 42.7056 21.1038 42.7056 21.1526 42.7056C21.2013 42.7056 21.25 42.7056 21.2971 42.7056C23.4554 42.6532 25.4464 41.4524 27.1175 39.3965C27.1533 39.3539 27.1874 39.308 27.2231 39.2638L27.2004 39.1803L26.8431 37.9451L25.3246 37.6486C24.4103 38.8166 23.4148 39.6095 22.3998 39.9699C21.9857 40.1189 21.5699 40.1943 21.1542 40.1943C20.7384 40.1943 20.3227 40.1189 19.9086 39.9699C18.2553 39.3818 16.6524 37.6469 15.3727 35.0111C15.0187 34.2821 14.6971 33.5056 14.4097 32.6865C14.1385 31.9166 13.8965 31.1073 13.6854 30.2686C13.0926 27.9162 12.7434 25.318 12.6606 22.6068C12.6476 22.1907 12.6411 21.773 12.6411 21.3504C12.6411 20.9277 12.6476 20.51 12.6606 20.0939C12.7434 17.3827 13.0942 14.7862 13.687 12.4321C13.8965 11.5917 14.1385 10.7841 14.4097 10.0142C14.6971 9.19509 15.0187 8.41695 15.3727 7.69124C16.6524 5.05541 18.2553 3.32058 19.9086 2.73248C20.3227 2.58504 20.7384 2.50969 21.1542 2.50969C21.5699 2.50969 21.9857 2.58504 22.3998 2.73248C24.053 3.32058 25.6575 5.05541 26.9373 7.69124C27.288 8.41204 27.6047 9.18034 27.8922 9.99124C28.1634 10.7612 28.407 11.5688 28.6165 12.4075C29.2125 14.7665 29.5649 17.3745 29.6477 20.0939C29.6607 20.51 29.6672 20.9277 29.6672 21.3504C29.6672 21.773 29.6607 22.1907 29.6477 22.6068C29.6347 23.036 29.6153 23.4603 29.5893 23.883L30.2502 24.7905L31.9847 25.2181C31.9895 25.1722 31.9928 25.1247 31.9977 25.0772C32.0675 24.2696 32.1162 23.4456 32.1406 22.6068C32.1536 22.1924 32.1584 21.773 32.1584 21.3504C32.1584 20.9277 32.1536 20.5083 32.1406 20.0939L32.139 20.0972Z" fill="#5B656D"/>
<path d="M40.1942 20.0988H2.11607C1.63533 20.0988 1.24561 20.4919 1.24561 20.9768V21.732C1.24561 22.217 1.63533 22.6101 2.11607 22.6101H40.1942C40.6749 22.6101 41.0646 22.217 41.0646 21.732V20.9768C41.0646 20.4919 40.6749 20.0988 40.1942 20.0988Z" fill="#5B656D"/>
<path d="M21.0518 13.0448C16.2853 13.0448 11.5465 12.2568 5.78451 10.6809C5.31842 10.5531 5.04234 10.0666 5.17226 9.59645L5.37364 8.86746C5.50194 8.40386 5.97777 8.13028 6.43899 8.25642C17.6073 11.3133 24.4785 11.31 35.8676 8.24332C36.3288 8.11881 36.8047 8.39403 36.9313 8.85763L37.1295 9.58826C37.2578 10.0584 36.9801 10.5433 36.5123 10.6695C30.6286 12.2519 25.8264 13.0432 21.0502 13.0432L21.0518 13.0448Z" fill="#5B656D"/>
<path d="M24.6508 30.3849L25.2257 32.3736C25.1753 32.3671 25.1282 32.3622 25.0779 32.3589C24.1749 32.2704 23.2833 32.2131 22.3983 32.1836C21.5651 32.1574 20.7385 32.1541 19.9087 32.1787C18.1093 32.2295 16.2985 32.3998 14.4098 32.6914C13.5978 32.8176 12.7711 32.9634 11.925 33.1338C10.5105 33.4188 9.03755 33.7628 7.48338 34.1724C7.13909 34.2625 6.79155 34.3558 6.43914 34.4525C5.97792 34.5786 5.50209 34.3067 5.37379 33.8431L5.16917 33.1059C5.04087 32.6423 5.31045 32.1607 5.77005 32.0345C5.7733 32.0345 5.77492 32.0345 5.77817 32.0329C7.6945 31.5103 9.49877 31.0713 11.2267 30.7224C12.0631 30.552 12.8799 30.4046 13.6855 30.2751C15.8243 29.9328 17.8721 29.7362 19.9087 29.6821C20.7385 29.6592 21.5668 29.6625 22.3983 29.687C22.8887 29.7018 23.3808 29.7263 23.8745 29.7575L24.6508 30.3882V30.3849Z" fill="#5B656D"/>
<path d="M21.5278 1.25647H20.7792C20.2984 1.25647 19.9087 1.64959 19.9087 2.13453V40.576C19.9087 41.0609 20.2984 41.454 20.7792 41.454H21.5278C22.0086 41.454 22.3983 41.0609 22.3983 40.576V2.13453C22.3983 1.64959 22.0086 1.25647 21.5278 1.25647Z" fill="#5B656D"/>
<path d="M30.0101 26.4352C29.9809 26.4057 29.9484 26.3812 29.9143 26.3599C29.5716 26.1518 27.6959 25.1067 26.4909 26.3222C25.2859 27.5377 26.322 29.4298 26.5283 29.7755C26.5494 29.8115 26.5753 29.8426 26.603 29.8721L30.7799 34.0855C30.9131 34.2198 30.9618 34.4197 30.9049 34.6015L28.0629 43.6263C28.0061 43.8081 28.0532 44.0079 28.188 44.1423L29.8834 45.8525C30.1141 46.0852 30.5006 46.0409 30.6727 45.7608L34.8026 39.0312C34.9747 38.751 35.3612 38.7052 35.5918 38.9394L37.375 40.7381C37.4594 40.8233 37.5114 40.9347 37.5212 41.056L37.8671 45.076C37.8768 45.1956 37.9288 45.3087 38.0132 45.3938L38.3153 45.6985C38.5475 45.9328 38.934 45.8853 39.1046 45.6035L41.5097 41.6424C41.5519 41.5736 41.6088 41.5163 41.677 41.4737L45.6412 39.0131C45.9205 38.8395 45.966 38.4496 45.7338 38.217L45.4317 37.9123C45.3456 37.8255 45.2336 37.773 45.1134 37.7649L41.0972 37.4487C40.977 37.4389 40.8634 37.3864 40.7789 37.3013L38.9974 35.5042C38.7668 35.2716 38.8106 34.8817 39.0883 34.708L45.7597 30.5421C46.0374 30.3685 46.0829 29.9786 45.8507 29.746L44.1552 28.0357C44.0221 27.9014 43.8239 27.8523 43.6437 27.9096L34.697 30.7764C34.5167 30.8337 34.3186 30.7862 34.1854 30.6503L30.0085 26.4369L30.0101 26.4352Z" fill="#33363F"/>
</g>
<defs>
<clipPath id="clip0_251_2477">
<rect width="46" height="46" fill="white"/>
</clipPath>
</defs>
</svg>
