<svg xmlns="http://www.w3.org/2000/svg" width="110" height="110" viewBox="0 0 110 110">
  <defs>
    <style>
      .cls-1 {
        fill: #202020;
        fill-rule: evenodd;
      }
    </style>
  </defs>
  <g id="export_promote_icon">
    <path class="cls-1" d="M305.817,9.986V40.837a2,2,0,0,0,4,0V5.189a2,2,0,0,0-2-2H272.141a2,2,0,1,0,0,3.993h30.875m-0.045.021-39.377,39.35a2,2,0,0,0-.585,1.412v57.038a2,2,0,0,0,4,0V48.794l38.782-38.757M250.737,35.7a2,2,0,0,0,1.412-3.408L223.61,3.777A2,2,0,0,0,220.786,6.6l28.538,28.519A2,2,0,0,0,250.737,35.7Z" transform="translate(-210)"/>
  </g>
</svg>
