<svg xmlns="http://www.w3.org/2000/svg" width="110" height="110" viewBox="0 0 110 110">
  <defs>
    <style>
      .cls-1 {
        fill: #202020;
        fill-rule: evenodd;
      }
    </style>
  </defs>
  <g id="export_download_icon">
    <path class="cls-1" d="M57.536,79.972V5a1.991,1.991,0,1,0-3.981,0V79.972l-0.026.164L30.223,56.85a1.984,1.984,0,0,0-2.815.008,2.006,2.006,0,0,0,.008,2.828l26.726,26.7a3.638,3.638,0,0,0,1.4.582h0.006a1.985,1.985,0,0,0,1.405-.59l26.432-26.7a2.006,2.006,0,0,0-.008-2.828,1.984,1.984,0,0,0-2.815.008L57.575,80.085Zm-1.991,7M88.624,107H22.175A15.333,15.333,0,0,1,6.895,91.648V61.606a1.991,1.991,0,1,1,3.981,0V91.648A11.338,11.338,0,0,0,22.175,103H88.624a11.338,11.338,0,0,0,11.3-11.352V61.606a1.991,1.991,0,1,1,3.982,0V91.648A15.334,15.334,0,0,1,88.624,107Z"/>
  </g>
</svg>
