<svg width="18" height="16" viewBox="0 0 18 16" fill="none" xmlns="http://www.w3.org/2000/svg">
<path d="M1 6.12026C1 5.22427 1.72635 4.49792 2.62234 4.49792V4.49792C3.23684 4.49792 3.79859 4.15074 4.0734 3.60112L4.79167 2.16459C4.82115 2.10562 4.8359 2.07613 4.85041 2.0492C5.18894 1.42095 5.83658 1.02069 6.5499 0.998861C6.58048 0.997925 6.61344 0.997925 6.67937 0.997925H11.0706C11.1366 0.997925 11.1695 0.997925 11.2001 0.998861C11.9134 1.02069 12.5611 1.42095 12.8996 2.0492C12.9141 2.07613 12.9288 2.10562 12.9583 2.16459L13.6766 3.60112C13.9514 4.15074 14.5132 4.49792 15.1277 4.49792V4.49792C16.0237 4.49792 16.75 5.22427 16.75 6.12026V10.4979C16.75 11.8957 16.75 12.5947 16.5216 13.146C16.2172 13.8811 15.6331 14.4651 14.8981 14.7696C14.3467 14.9979 13.6478 14.9979 12.25 14.9979H5.5C4.10218 14.9979 3.40326 14.9979 2.85195 14.7696C2.11687 14.4651 1.53284 13.8811 1.22836 13.146C1 12.5947 1 11.8957 1 10.4979V6.12026Z" stroke="#64666D" stroke-width="1.3"/>
<circle cx="8.93317" cy="8.93122" r="2.61667" stroke="#64666D" stroke-width="1.3"/>
</svg>
