<svg width="20" height="17" viewBox="0 0 20 17" fill="none" xmlns="http://www.w3.org/2000/svg">
<g clip-path="url(#clip0_816_4123)">
<path d="M15.1112 9.9326V12.1993C15.1112 15.2215 13.9023 16.4304 10.8801 16.4304H8.00894C4.98672 16.4304 3.77783 15.2215 3.77783 12.1993V9.32816C3.77783 6.30593 4.98672 5.09705 8.00894 5.09705H10.2756" stroke="#64666D" stroke-width="1.3" stroke-linecap="round" stroke-linejoin="round"/>
<path d="M15.1109 9.9326H12.6932C10.8798 9.9326 10.2754 9.32816 10.2754 7.51482V5.09705L15.1109 9.9326Z" stroke="#64666D" stroke-width="1.3" stroke-linecap="round" stroke-linejoin="round"/>
<path d="M9.06641 2.83039C9.06641 1.57617 10.0789 0.563721 11.3331 0.563721H14.3553" stroke="#64666D" stroke-width="1.3" stroke-linecap="round" stroke-linejoin="round"/>
<path d="M18.8887 5.09705V9.77393C18.8887 10.945 17.9367 11.897 16.7656 11.897" stroke="#64666D" stroke-width="1.3" stroke-linecap="round" stroke-linejoin="round"/>
<path d="M18.8888 5.09705H16.6221C14.9221 5.09705 14.3555 4.53039 14.3555 2.83039V0.563721L18.8888 5.09705Z" stroke="#64666D" stroke-width="1.3" stroke-linecap="round" stroke-linejoin="round"/>
<path d="M0.566895 6.20771C0.566895 3.28371 2.93178 0.918823 5.85578 0.918823L5.06245 2.24105" stroke="#64666D" stroke-width="1.3" stroke-linecap="round" stroke-linejoin="round"/>
<path d="M10.9557 13.786H6.42236" stroke="#C1C2C5" stroke-width="1.3" stroke-linecap="round" stroke-linejoin="round"/>
<path d="M9.44459 11.5193H6.42236" stroke="#C1C2C5" stroke-width="1.3" stroke-linecap="round" stroke-linejoin="round"/>
</g>
<defs>
<clipPath id="clip0_816_4123">
<rect width="19.4556" height="17" fill="white" transform="translate(0 -0.00292969)"/>
</clipPath>
</defs>
</svg>
