<svg width="29" height="18" viewBox="0 0 29 18" fill="none" xmlns="http://www.w3.org/2000/svg">
<path d="M2.85507 10.9692C3.8796 10.9692 4.71014 10.1386 4.71014 9.11411C4.71014 8.08958 3.8796 7.25903 2.85507 7.25903C1.83054 7.25903 1 8.08958 1 9.11411C1 10.1386 1.83054 10.9692 2.85507 10.9692Z" stroke="#64666D" stroke-width="1.3"/>
<path d="M2.85507 1.2301C3.87817 1.2301 4.71015 2.06207 4.71015 3.08518C4.71015 4.10828 3.87817 4.94025 2.85507 4.94025C1.83197 4.94025 1 4.10828 1 3.08518C1 2.06207 1.83197 1.2301 2.85507 1.2301Z" stroke="#64666D" stroke-width="1.3"/>
<path d="M1 15.1318C1 14.1087 1.83197 13.288 2.85507 13.288C3.87817 13.288 4.71014 14.1199 4.71014 15.143C4.71014 16.1661 3.87817 16.9981 2.85507 16.9981C1.83197 16.9981 1 16.1549 1 15.1318Z" stroke="#64666D" stroke-width="1.3"/>
<path d="M11.6265 9.11414H7.62012" stroke="#64666D" stroke-width="1.3" stroke-linecap="square" stroke-linejoin="round"/>
<path d="M11.6265 5.51925H10.3138L9.20561 2.91777C9.15447 2.74729 9.00103 2.63647 8.82203 2.63647C8.64302 2.63647 7.62012 2.63647 7.62012 2.63647" stroke="#64666D" stroke-width="1.3" stroke-linecap="square" stroke-linejoin="round"/>
<path d="M11.6262 12.7004H10.0237C9.84466 12.7004 9.69123 12.8113 9.64008 12.9817L8.52342 15.5832H7.61133" stroke="#64666D" stroke-width="1.3" stroke-linecap="square" stroke-linejoin="round"/>
<path d="M27.6667 6.98078V9.99527C27.6667 14.1692 25.9971 15.8387 21.8232 15.8387H20.5246C16.3507 15.8387 14.6812 14.1692 14.6812 9.99527V6.84165C14.6812 2.66773 16.3507 0.998169 20.5246 0.998169H21.4058" stroke="#64666D" stroke-width="1.3" stroke-linecap="square" stroke-linejoin="round"/>
<path d="M27.6668 6.56339H24.8842C22.7972 6.56339 22.1016 5.86773 22.1016 3.78078V0.998169L27.6668 6.56339Z" stroke="#64666D" stroke-width="1.3" stroke-linecap="round" stroke-linejoin="round"/>
<path d="M18.3911 9.57788H21.1601" stroke="#C1C2C5" stroke-width="1.3" stroke-linecap="round" stroke-linejoin="round"/>
<path d="M18.3911 11.8967H22.1013" stroke="#C1C2C5" stroke-width="1.3" stroke-linecap="round" stroke-linejoin="round"/>
</svg>
