<svg width="25" height="19" viewBox="0 0 25 19" fill="none" xmlns="http://www.w3.org/2000/svg">
<path d="M9.203 6.89771C7.84135 6.89771 6.74219 7.99687 6.74219 9.35851C6.74219 10.7202 7.84135 11.8193 9.203 11.8193" stroke="#64666D" stroke-width="1.3" stroke-linecap="round" stroke-linejoin="round"/>
<path d="M10.6464 16.4211L10.5561 16.2652C9.8179 14.9856 8.6039 14.9856 7.85745 16.2652L7.76722 16.4211C7.3817 17.0691 6.54502 17.2987 5.89701 16.9132L4.47794 16.1011C3.71509 15.6664 3.49362 14.7067 3.92836 13.9356C4.642 12.6642 4.035 11.6389 2.55851 11.6389C1.69723 11.6389 1 10.9334 1 10.0804V8.6367C1 7.78362 1.69723 7.07818 2.55851 7.07818C4.0268 7.07818 4.642 6.04464 3.92836 4.78143C3.50182 4.01858 3.7233 3.05886 4.47794 2.61592L5.89701 1.80385C6.54502 1.41832 7.3817 1.648 7.76722 2.29601L7.85745 2.45186C8.5957 3.73148 9.8097 3.73148 10.5561 2.45186L10.6464 2.29601" stroke="#64666D" stroke-width="1.3" stroke-linecap="round" stroke-linejoin="round"/>
<path d="M17.8347 3.3797C17.7436 3.317 17.6404 3.27415 17.5317 3.25393C17.423 3.23371 17.3113 3.23657 17.2038 3.26233L17.2038 6.19647C17.2064 6.33589 17.1808 6.4744 17.1286 6.60371C17.0765 6.73303 16.9988 6.8505 16.9002 6.9491C16.8015 7.0477 16.6841 7.12541 16.5548 7.17759C16.4255 7.22976 16.2869 7.25533 16.1475 7.25276L15.0912 7.31145C14.8197 7.30873 14.5601 7.19966 14.3681 7.00766C14.1761 6.81565 14.067 6.55602 14.0643 6.2845L14.0643 3.35035C13.9571 3.30719 13.8418 3.2881 13.7264 3.29444C13.6111 3.30078 13.4986 3.33239 13.3968 3.38703C12.7828 3.79683 12.2962 4.37078 11.9925 5.04354C11.6887 5.7163 11.5799 6.46084 11.6785 7.19238C11.7772 7.92393 12.0792 8.61309 12.5502 9.1814C13.0213 9.74972 13.6425 10.1744 14.343 10.407L14.3064 16.3057C14.3048 16.4439 14.3309 16.581 14.383 16.709C14.4352 16.837 14.5124 16.9532 14.6101 17.0509C14.7078 17.1486 14.8241 17.2258 14.9521 17.278C15.08 17.3302 15.2171 17.3562 15.3553 17.3547L15.8835 17.3547C16.0216 17.3562 16.1587 17.3302 16.2867 17.278C16.4147 17.2258 16.5309 17.1486 16.6286 17.0509C16.7263 16.9532 16.8036 16.837 16.8557 16.709C16.9079 16.581 16.934 16.4439 16.9324 16.3057L16.9397 10.3776C17.6288 10.1333 18.2366 9.70259 18.6955 9.13346C19.1544 8.56433 19.4465 7.87907 19.5392 7.15387C19.632 6.42867 19.5218 5.69196 19.2208 5.02566C18.9199 4.35936 18.4401 3.78959 17.8347 3.3797Z" stroke="#64666D" stroke-width="1.3" stroke-linecap="round" stroke-linejoin="round"/>
</svg>
