<svg width="18" height="17" viewBox="0 0 18 17" fill="none" xmlns="http://www.w3.org/2000/svg">
<path d="M2.25 5.45839V4.24872C2.25 2.59186 3.59315 1.24872 5.25 1.24872H13.75C15.4069 1.24872 16.75 2.59186 16.75 4.24872V11.8132C16.75 13.4701 15.4069 14.8132 13.75 14.8132H11.25" stroke="#64666D" stroke-width="1.3" stroke-linecap="round"/>
<path d="M12 5.62769V4.97769H12.65V5.62769H12ZM6.57181 11.6602C6.31109 11.907 5.89969 11.8957 5.65292 11.635C5.40615 11.3743 5.41747 10.9629 5.67819 10.7161L6.57181 11.6602ZM11.35 9.83736V5.62769H12.65V9.83736H11.35ZM12 6.27769H7.5V4.97769H12V6.27769ZM12.4468 6.09977L6.57181 11.6602L5.67819 10.7161L11.5532 5.1556L12.4468 6.09977Z" fill="#64666D"/>
<rect x="1.25" y="10.8374" width="5.25" height="4.91129" rx="2" stroke="#64666D" stroke-width="1.3" stroke-linecap="round"/>
</svg>
