<svg width="15" height="17" viewBox="0 0 15 17" fill="none" xmlns="http://www.w3.org/2000/svg">
<path d="M1 9.99731C1 8.1117 1 7.16889 1.58579 6.5831C1.58579 6.5831 1.58579 6.5831 1.58579 6.5831C2.17157 5.99731 3.11438 5.99731 5 5.99731H10.3333C12.219 5.99731 13.1618 5.99731 13.7475 6.5831C13.7475 6.5831 13.7475 6.5831 13.7475 6.5831C14.3333 7.16889 14.3333 8.1117 14.3333 9.99731V9.99731C14.3333 12.8257 14.3333 14.24 13.4547 15.1186C13.4547 15.1186 13.4547 15.1186 13.4547 15.1186C12.576 15.9973 11.1618 15.9973 8.33333 15.9973H6.99999C4.17157 15.9973 2.75736 15.9973 1.87868 15.1186C1.87868 15.1186 1.87868 15.1186 1.87868 15.1186C1 14.24 1 12.8257 1 9.99731V9.99731Z" stroke="#64666D" stroke-width="1.3"/>
<path d="M11.0002 5.1641V4.33077C11.0002 2.48982 9.50778 0.997437 7.66683 0.997437V0.997437C5.82588 0.997437 4.3335 2.48982 4.3335 4.33077V5.1641" stroke="#64666D" stroke-width="1.3" stroke-linecap="round"/>
<circle cx="7.58984" cy="11.0175" r="1.5" fill="#64666D"/>
</svg>
