<svg width="19" height="18" viewBox="0 0 19 18" fill="none" xmlns="http://www.w3.org/2000/svg">
<path d="M2.77756 15.2202V15.2202C2.23279 14.9478 1.88867 14.391 1.88867 13.7819V11.6646V7.09049C1.88867 6.18027 2.62655 5.4424 3.53676 5.4424V5.4424C4.16101 5.4424 4.73169 5.0897 5.01086 4.53135L5.74052 3.07203C5.77895 2.99518 5.79816 2.95675 5.8174 2.92183C6.15535 2.30834 6.78962 1.91634 7.48948 1.88843C7.52932 1.88684 7.57228 1.88684 7.65819 1.88684H11.6664H12.4504C13.0595 1.88684 13.6163 2.23096 13.8887 2.77573V2.77573" stroke="#64666D" stroke-width="1.3" stroke-linecap="round"/>
<path d="M16.111 5.44238V5.44238C17.0928 5.44238 17.8888 6.23832 17.8888 7.22016V8.99794V10.1091C17.8888 12.9375 17.8888 14.3517 17.0101 15.2304C16.1314 16.109 14.7172 16.109 11.8888 16.109H8.111H5.44434" stroke="#64666D" stroke-width="1.3" stroke-linecap="round"/>
<path d="M17 0.997925L1 16.9979" stroke="#64666D" stroke-width="1.3" stroke-linecap="round"/>
<path d="M12.38 8.80798C12.6518 9.21609 12.8101 9.70619 12.8101 10.2333C12.8101 11.6553 11.6574 12.808 10.2354 12.808C9.70832 12.808 9.21818 12.6496 8.81006 12.3778" stroke="#64666D" stroke-width="1.3" stroke-linecap="round"/>
</svg>
