<svg width="27" height="26" viewBox="0 0 27 26" fill="none" xmlns="http://www.w3.org/2000/svg">
<g clip-path="url(#clip0_817_4137)">
<path d="M9.19352 10.9109L16.4469 6.72315C16.908 6.45696 17.4584 6.40262 17.9887 6.5795L21.0165 7.56479C21.6766 7.77646 22.0997 8.50922 21.9529 9.18672L21.2692 12.4137C21.1573 12.9613 20.8268 13.4156 20.3739 13.677L13.1946 17.822C12.2478 18.3687 10.9795 17.9592 10.3711 16.9054L8.58857 13.8179C7.96714 12.7606 8.24671 11.4576 9.20175 10.9062L9.19352 10.9109Z" stroke="#64666D" stroke-width="1.3"/>
<path d="M17.3368 12.4667C18.0188 12.0729 18.2525 11.2007 17.8587 10.5187C17.465 9.83661 16.5928 9.60292 15.9108 9.9967C15.2287 10.3905 14.995 11.2626 15.3888 11.9447C15.7826 12.6267 16.6547 12.8604 17.3368 12.4667Z" stroke="#64666D" stroke-width="1.3"/>
<path d="M8.16749 11.2067C8.16749 11.2067 7.84467 9.94409 6.65702 9.1039C6.45713 8.96683 6.48997 8.66245 6.71226 8.53411L8.36713 7.57867C9.17398 7.11284 10.166 7.17681 10.8382 7.73275L12.21 8.87282L8.16749 11.2067Z" stroke="#64666D" stroke-width="1.3"/>
<path d="M12.4125 18.559C12.4125 18.559 13.3446 19.4699 13.4784 20.9185C13.4972 21.1601 13.7772 21.2839 13.9995 21.1555L15.6543 20.2001C16.4612 19.7343 16.9018 18.8432 16.7564 17.983L16.455 16.225L12.4125 18.559Z" stroke="#64666D" stroke-width="1.3"/>
<path d="M11.7249 14.0599L9.79834 15.1722" stroke="#64666D" stroke-width="1.3" stroke-linecap="round" stroke-linejoin="round"/>
<path d="M4.92867 13.582L3.422 14.4518C3.04327 14.6705 2.56277 14.5417 2.33936 14.1548C2.1207 13.7761 2.24945 13.2956 2.62818 13.0769L2.76814 12.9961" stroke="#64666D" stroke-width="1.3" stroke-linecap="round" stroke-linejoin="round"/>
<path d="M6.98444 14.7661L5.46826 15.6195" stroke="#C1C2C5" stroke-width="1.3" stroke-linecap="round" stroke-linejoin="round"/>
<path d="M8.71198 17.7206L7.1958 18.574" stroke="#C1C2C5" stroke-width="1.3" stroke-linecap="round" stroke-linejoin="round"/>
<path d="M6.42291 17.1211L4.90674 17.9745" stroke="#64666D" stroke-width="1.3" stroke-linecap="round" stroke-linejoin="round"/>
<path d="M8.72413 20.1945L7.20923 21.0691C6.83051 21.2877 6.70176 21.7682 6.92041 22.147C7.13907 22.5257 7.61957 22.6545 7.9983 22.4358L8.13826 22.355" stroke="#64666D" stroke-width="1.3" stroke-linecap="round" stroke-linejoin="round"/>
</g>
<defs>
<clipPath id="clip0_817_4137">
<rect width="21.2763" height="16" fill="white" transform="translate(0 11.5863) rotate(-30)"/>
</clipPath>
</defs>
</svg>
