<svg width="18" height="17" viewBox="0 0 18 17" fill="none" xmlns="http://www.w3.org/2000/svg">
<path d="M17.0685 12.4181V2.72073C17.0685 1.75663 16.2811 1.04158 15.325 1.12192H15.2768C13.5896 1.26654 11.0267 2.1262 9.59663 3.02604L9.46005 3.11441C9.22706 3.25903 8.84141 3.25903 8.60842 3.11441L8.40757 2.9939C6.97747 2.1021 4.42258 1.25047 2.73539 1.11389C1.77932 1.03354 1 1.75663 1 2.7127V12.4181C1 13.1894 1.62667 13.9124 2.39796 14.0088L2.63095 14.041C4.37438 14.274 7.06585 15.1577 8.60842 16.0013L8.64056 16.0174C8.85748 16.1379 9.20295 16.1379 9.41184 16.0174C10.9544 15.1658 13.6539 14.274 15.4054 14.041L15.6705 14.0088C16.4418 13.9124 17.0685 13.1894 17.0685 12.4181Z" stroke="#64666D" stroke-width="1.3" stroke-linecap="round" stroke-linejoin="round"/>
<path d="M9.03369 3.37952V15.4308" stroke="#64666D" stroke-width="1.3" stroke-linecap="round" stroke-linejoin="round"/>
<path d="M5.6202 5.78992H3.8125" stroke="#C1C2C5" stroke-width="1.3" stroke-linecap="round" stroke-linejoin="round"/>
<path d="M6.22277 8.20007H3.8125" stroke="#C1C2C5" stroke-width="1.3" stroke-linecap="round" stroke-linejoin="round"/>
</svg>
