<svg width="16" height="16" viewBox="0 0 16 16" fill="none" xmlns="http://www.w3.org/2000/svg">
<path d="M9.75 14.9979V14.1229C9.75 13.5418 9.75 13.2512 9.69006 13.012C9.51075 12.2961 8.95181 11.7372 8.23596 11.5579C7.99668 11.4979 7.70612 11.4979 7.125 11.4979V11.4979C6.54388 11.4979 6.25332 11.4979 6.01404 11.5579C5.29819 11.7372 4.73925 12.2961 4.55994 13.012C4.5 13.2512 4.5 13.5418 4.5 14.1229V14.9979" stroke="#64666D" stroke-width="1.3"/>
<path d="M4.5 5.37292H8.875" stroke="#64666D" stroke-width="1.3" stroke-linecap="round"/>
<path d="M1 6.99792C1 4.1695 1 2.75528 1.87868 1.8766C2.75736 0.997925 4.17157 0.997925 7 0.997925H11.0605C11.4692 0.997925 11.6736 0.997925 11.8574 1.07405C12.0411 1.15017 12.1856 1.29468 12.4747 1.58371L14.4142 3.52325C14.7032 3.81228 14.8478 3.9568 14.9239 4.14057C15 4.32434 15 4.52871 15 4.93746V8.99792C15 11.8264 15 13.2406 14.1213 14.1192C13.2426 14.9979 11.8284 14.9979 9 14.9979H7C4.17157 14.9979 2.75736 14.9979 1.87868 14.1192C1 13.2406 1 11.8264 1 8.99792V6.99792Z" stroke="#64666D" stroke-width="1.3"/>
</svg>
