<svg width="21" height="19" viewBox="0 0 21 19" fill="none" xmlns="http://www.w3.org/2000/svg">
<path d="M1 11.9518C1 10.0464 1 9.09369 1.58579 8.50791C2.17157 7.92212 3.11438 7.92212 5 7.92212H10.4323C12.3179 7.92212 13.2608 7.92212 13.8465 8.50791C14.4323 9.09369 14.4323 10.0464 14.4323 11.9518V11.9518C14.4323 14.8099 14.4323 16.239 13.5537 17.1177C12.675 17.9964 11.2608 17.9964 8.43233 17.9964H6.99999C4.17157 17.9964 2.75736 17.9964 1.87868 17.1177C1 16.239 1 14.8099 1 11.9518V11.9518Z" stroke="#64666D" stroke-width="1.3"/>
<path d="M11.2675 7.86787L11.1952 7.28943C11.0049 5.76709 11.6899 4.26767 12.9653 3.41493L13.3233 3.17554C14.7227 2.23987 16.588 2.42234 17.7796 3.61145V3.61145C18.521 4.35132 18.9124 5.37174 18.8561 6.41762L18.792 7.60747" stroke="#64666D" stroke-width="1.3" stroke-linecap="round"/>
<path d="M9.08535 13C9.08535 13.8284 8.41378 14.5 7.58535 14.5C6.75693 14.5 6.08535 13.8284 6.08535 13C6.08535 12.1716 6.75693 11.5 7.58535 11.5C8.41378 11.5 9.08535 12.1716 9.08535 13Z" fill="#64666D"/>
</svg>
