<svg xmlns="http://www.w3.org/2000/svg" width="54" height="54" viewBox="0 0 54 54">
  <defs>
    <style>
      .cls-1 {
        fill: #7e7e7e;
        fill-rule: evenodd;
      }
    </style>
  </defs>
  <path class="cls-1" d="M53.14,33.438a2.153,2.153,0,0,0-.167-3.052l-2.285-2.038a2.18,2.18,0,0,0-3.068.166l-0.964,1.068,5.52,4.924Zm-1.712,1.881-5.52-4.924-1.994,2.215,5.52,4.924ZM30.634,52.5a0.288,0.288,0,0,0,.349.311l1.444-.315-1.64-1.464ZM37.547,50.7L48.591,38.452l-5.521-4.924L32.027,45.771a1.428,1.428,0,0,0-.362.813L31.3,50.055l2.052,1.832,3.423-.743A1.469,1.469,0,0,0,37.547,50.7Zm5.475-21.872H27a1.487,1.487,0,0,1-1.714-1.369A1.559,1.559,0,0,1,27,25.948H43.325a0.95,0.95,0,0,1,.913.71c1.088-1.077,3.529-2.669,5.06-2.669a5.723,5.723,0,0,1,3.691,1.336V12.685C52.989,1.063,52.552,1,41.268,1H12.727c-11.4.12-11.481,0.178-11.721,11.681V41.127c0,11.683.076,11.681,11.721,11.681h7.382a2.22,2.22,0,0,0,1.638-.721ZM26.516,12.518H45.769a1.439,1.439,0,1,1,0,2.878H26.516A1.439,1.439,0,1,1,26.516,12.518ZM23.051,23.746l-8.124,9.446a1.188,1.188,0,0,1-1.611.177L7.9,29.321a1.182,1.182,0,1,1,1.422-1.888l4.528,3.384,7.4-8.605A1.182,1.182,0,0,1,23.051,23.746Zm0-15.037-8.124,9.446a1.188,1.188,0,0,1-1.611.177L7.9,14.283A1.182,1.182,0,1,1,9.321,12.4l4.528,3.384,7.4-8.605A1.182,1.182,0,0,1,23.051,8.709Z"/>
</svg>
