<svg xmlns="http://www.w3.org/2000/svg" width="32" height="32" viewBox="0 0 32 32">
  <defs>
    <style>
      .cls-1 {
        fill: #7e7e7e;
        fill-rule: evenodd;
      }
    </style>
  </defs>
  <g id="export-promote">
    <path class="cls-1" d="M709.954,94.6a41.523,41.523,0,0,1,5.1-1.554,2.393,2.393,0,0,1,.55-0.064,2.385,2.385,0,0,1,2.313,2.931,41.526,41.526,0,0,1-1.552,5.1Zm1.983,20.507a1.144,1.144,0,0,1-.2.9l-6.323,8.533a1.141,1.141,0,0,1-1.989-1.069,16.218,16.218,0,0,0,.96-5.884,8.668,8.668,0,0,0-.634-2.357,7.486,7.486,0,0,1-1.2.135l-0.7,2.307a1.141,1.141,0,0,1-1.9.476l-0.181-.181a9.793,9.793,0,0,1-2.8,3.511c-2.226,1.658-6.621,1.787-7.915,1.787h-0.215a1.142,1.142,0,0,1-1.116-1.118c-0.012-.571-0.063-5.654,1.783-8.138a9.8,9.8,0,0,1,3.508-2.8l-0.18-.181a1.142,1.142,0,0,1,.475-1.9l2.3-.7a7.38,7.38,0,0,1,.138-1.2,8.674,8.674,0,0,0-2.357-.636,6.275,6.275,0,0,0-.766-0.043,18.04,18.04,0,0,0-5.112,1,1.141,1.141,0,0,1-1.068-1.99l8.525-6.329a1.14,1.14,0,0,1,.9-0.2,16,16,0,0,1,2.009.662,17.967,17.967,0,0,1,2.015.925,28.478,28.478,0,0,1,7.774-5.071l7.744,7.751a28.53,28.53,0,0,1-5.066,7.781,17.934,17.934,0,0,1,.924,2.017A15.993,15.993,0,0,1,711.937,115.111Zm-13.894,1.136-3.3-3.306a8.12,8.12,0,0,0-3.4,2.438c-0.924,1.242-1.236,3.875-1.314,5.589,2.046-.089,4.447-0.467,5.585-1.314A8.169,8.169,0,0,0,698.043,116.247Zm11.384-8.369a4.47,4.47,0,1,0-3.163,1.311A4.449,4.449,0,0,0,709.427,107.878Zm-3.163-5.358a2.19,2.19,0,1,0,1.55.642A2.176,2.176,0,0,0,706.264,102.52Z" transform="translate(-686 -93)"/>
  </g>
</svg>
